<svg id="Layer_1" data-name="Layer 1" xmlns="http://www.w3.org/2000/svg" viewBox="0 0 216 360"><path d="M182.18,335.92H33.67A17.54,17.54,0,0,1,16.15,318.4V35.14A17.54,17.54,0,0,1,33.67,17.62H182.18A17.54,17.54,0,0,1,199.7,35.14V318.4a17.54,17.54,0,0,1-17.52,17.52Z" style="fill:#fff"/><path d="M182.18,17a18.16,18.16,0,0,1,18.14,18.14V318.4a18.16,18.16,0,0,1-18.14,18.14H33.67A18.16,18.16,0,0,1,15.53,318.4V35.14A18.16,18.16,0,0,1,33.67,17H182.18m0,1.24H33.67a16.92,16.92,0,0,0-16.9,16.9V318.4a16.92,16.92,0,0,0,16.9,16.9H182.18a16.92,16.92,0,0,0,16.9-16.9V35.14a16.92,16.92,0,0,0-16.9-16.9Z" style="fill:#231f20"/><path d="M194.7,258.33v60.34a12.81,12.81,0,0,1-12.81,12.8H33.38a12.81,12.81,0,0,1-12.8-12.8V258.33Z" style="fill:#231f20"/><path d="M194.7,258.33v60.34a12.81,12.81,0,0,1-12.81,12.8H33.38a12.81,12.81,0,0,1-12.8-12.8V258.33Z" style="fill:#231f20"/><path d="M38.8,264.81H42l6.69,15.71H45.06L43.64,277H37l-1.43,3.5h-3.5ZM42.41,274l-2.07-5.06L38.26,274Z" style="fill:#fff"/><path d="M49.36,272.77v0a7.93,7.93,0,0,1,8.14-8.07,8,8,0,0,1,6.16,2.41l-2.19,2.52a5.72,5.72,0,0,0-4-1.76A4.62,4.62,0,0,0,53,272.68v0a4.63,4.63,0,0,0,4.53,4.9,5.63,5.63,0,0,0,4.1-1.82l2.19,2.2a8,8,0,0,1-6.4,2.79A7.88,7.88,0,0,1,49.36,272.77Z" style="fill:#fff"/><path d="M65.37,272.77v0a7.93,7.93,0,0,1,8.14-8.07,8,8,0,0,1,6.15,2.41l-2.18,2.52a5.74,5.74,0,0,0-4-1.76A4.62,4.62,0,0,0,69,272.68v0a4.63,4.63,0,0,0,4.52,4.9,5.66,5.66,0,0,0,4.11-1.82l2.18,2.2a8,8,0,0,1-6.4,2.79A7.87,7.87,0,0,1,65.37,272.77Z" style="fill:#fff"/><path d="M82.51,264.92h7.14a6.18,6.18,0,0,1,4.54,1.58,4.91,4.91,0,0,1,1.34,3.57v0A4.85,4.85,0,0,1,92.19,275L96,280.52H92l-3.35-5h-2.7v5H82.51Zm6.91,7.58c1.67,0,2.63-.89,2.63-2.21v0c0-1.48-1-2.23-2.69-2.23H85.94v4.48Z" style="fill:#fff"/><path d="M98.63,264.92H110.4V268H102v3.17h7.36v3.05H102v3.28h8.47v3H98.63Z" style="fill:#fff"/><path d="M113.56,264.92h6.09c4.9,0,8.29,3.36,8.29,7.76v0c0,4.39-3.39,7.8-8.29,7.8h-6.09Zm6.09,12.51a4.45,4.45,0,0,0,4.7-4.66v0a4.48,4.48,0,0,0-4.7-4.7H117v9.41Z" style="fill:#fff"/><path d="M131.15,264.92h3.43v15.6h-3.43Z" style="fill:#fff"/><path d="M142.12,268.08h-4.75v-3.16H150.3v3.16h-4.75v12.44h-3.43Z" style="fill:#fff"/><path d="M152.92,264.92H164.7V268h-8.36v3.17h7.35v3.05h-7.35v3.28h8.47v3H152.92Z" style="fill:#fff"/><path d="M167.86,264.92H174c4.9,0,8.29,3.36,8.29,7.76v0c0,4.39-3.39,7.8-8.29,7.8h-6.09ZM174,277.43a4.45,4.45,0,0,0,4.7-4.66v0A4.48,4.48,0,0,0,174,268h-2.66v9.41Z" style="fill:#fff"/><path d="M51.59,286h7.25a5.64,5.64,0,0,1,4.08,1.38A3.6,3.6,0,0,1,64,290v.05a3.65,3.65,0,0,1-2.05,3.37c1.8.69,2.92,1.74,2.92,3.83v.05c0,2.85-2.32,4.28-5.84,4.28H51.59Zm6.51,6.31c1.52,0,2.48-.49,2.48-1.65v0c0-1-.81-1.61-2.25-1.61H54.94v3.3Zm.92,6.29c1.51,0,2.43-.54,2.43-1.7v0c0-1.05-.78-1.7-2.55-1.7h-4v3.44Z" style="fill:#fff"/><path d="M67.44,294.89V286h3.43v8.83c0,2.54,1.27,3.86,3.37,3.86s3.37-1.28,3.37-3.75V286H81v8.81c0,4.72-2.65,7-6.84,7S67.44,299.48,67.44,294.89Z" style="fill:#fff"/><path d="M83.47,299.3l2-2.43a7.14,7.14,0,0,0,4.66,1.9c1.4,0,2.25-.56,2.25-1.47v-.05c0-.87-.54-1.31-3.15-2-3.14-.81-5.17-1.67-5.17-4.77v-.05c0-2.83,2.28-4.7,5.46-4.7a9,9,0,0,1,5.8,2l-1.78,2.59a7.33,7.33,0,0,0-4.06-1.54c-1.32,0-2,.6-2,1.36v0c0,1,.67,1.36,3.37,2.05,3.17.83,4.95,2,4.95,4.69v0c0,3.1-2.36,4.84-5.73,4.84A9.94,9.94,0,0,1,83.47,299.3Z" style="fill:#fff"/><path d="M99,286h3.43v15.61H99Z" style="fill:#fff"/><path d="M106.29,286h3.17l7.31,9.61V286h3.39v15.61h-2.92l-7.56-9.93v9.93h-3.39Z" style="fill:#fff"/><path d="M123.9,286h11.77v3h-8.36v3.17h7.36v3.05h-7.36v3.28h8.47v3.06H123.9Z" style="fill:#fff"/><path d="M137.76,299.3l2-2.43a7.18,7.18,0,0,0,4.66,1.9c1.41,0,2.26-.56,2.26-1.47v-.05c0-.87-.54-1.31-3.15-2-3.14-.81-5.17-1.67-5.17-4.77v-.05c0-2.83,2.27-4.7,5.46-4.7a9,9,0,0,1,5.8,2l-1.79,2.59a7.3,7.3,0,0,0-4.05-1.54c-1.32,0-2,.6-2,1.36v0c0,1,.67,1.36,3.37,2.05,3.16.83,5,2,5,4.69v0c0,3.1-2.37,4.84-5.73,4.84A10,10,0,0,1,137.76,299.3Z" style="fill:#fff"/><path d="M151.81,299.3l2-2.43a7.14,7.14,0,0,0,4.66,1.9c1.4,0,2.25-.56,2.25-1.47v-.05c0-.87-.54-1.31-3.15-2-3.14-.81-5.17-1.67-5.17-4.77v-.05c0-2.83,2.28-4.7,5.46-4.7a9,9,0,0,1,5.8,2l-1.78,2.59a7.33,7.33,0,0,0-4.06-1.54c-1.32,0-2,.6-2,1.36v0c0,1,.67,1.36,3.37,2.05,3.17.83,4.95,2,4.95,4.69v0c0,3.1-2.36,4.84-5.73,4.84A9.94,9.94,0,0,1,151.81,299.3Z" style="fill:#fff"/><path d="M74.9,321.33v1.3H72.07V309.06H74.9v5a3.65,3.65,0,0,1,3.1-1.62c2.32,0,4.53,1.82,4.53,5.15v0c0,3.32-2.17,5.14-4.53,5.14A3.85,3.85,0,0,1,74.9,321.33Zm4.81-3.66v0a2.44,2.44,0,1,0-4.85,0v0a2.44,2.44,0,1,0,4.85,0Z" style="fill:#fff"/><path d="M87.19,321.33v1.3H84.37V309.06h2.82v5a3.67,3.67,0,0,1,3.11-1.62c2.32,0,4.53,1.82,4.53,5.15v0c0,3.32-2.17,5.14-4.53,5.14A3.85,3.85,0,0,1,87.19,321.33ZM92,317.67v0a2.44,2.44,0,1,0-4.85,0v0a2.44,2.44,0,1,0,4.85,0Z" style="fill:#fff"/><path d="M99.49,321.33v1.3H96.67V309.06h2.82v5a3.67,3.67,0,0,1,3.1-1.62c2.33,0,4.54,1.82,4.54,5.15v0c0,3.32-2.18,5.14-4.54,5.14A3.85,3.85,0,0,1,99.49,321.33Zm4.81-3.66v0a2.44,2.44,0,1,0-4.85,0v0a2.44,2.44,0,1,0,4.85,0Z" style="fill:#fff"/><path d="M108.66,319.65h3v3h-3Z" style="fill:#fff"/><path d="M113,317.7v0a5.23,5.23,0,0,1,5.41-5.19,5.18,5.18,0,0,1,5.37,5.15v0a5.39,5.39,0,0,1-10.78,0Zm8,0v0a2.65,2.65,0,0,0-2.62-2.75,2.55,2.55,0,0,0-2.58,2.71v0a2.65,2.65,0,0,0,2.62,2.75A2.55,2.55,0,0,0,121,317.7Z" style="fill:#fff"/><path d="M125.57,312.67h2.82v2a3.09,3.09,0,0,1,3.18-2.2v3h-.15c-1.88,0-3,1.13-3,3.51v3.68h-2.82Z" style="fill:#fff"/><path d="M133,324.6l1-2.12a6.54,6.54,0,0,0,3.36.91c1.93,0,2.84-.93,2.84-2.71v-.49a3.86,3.86,0,0,1-3.25,1.62,4.37,4.37,0,0,1-4.42-4.64v0a4.39,4.39,0,0,1,4.42-4.65A4,4,0,0,1,140.1,314v-1.3h2.82v7.71a5.38,5.38,0,0,1-1.26,3.92,5.83,5.83,0,0,1-4.29,1.34A9.44,9.44,0,0,1,133,324.6Zm7.17-7.43v0a2.43,2.43,0,0,0-4.85,0v0a2.43,2.43,0,0,0,4.85,0Z" style="fill:#fff"/><polygon points="149.89 163.03 67.62 163.03 64.63 172.86 86.55 172.86 90.74 186.43 126.78 186.43 130.95 172.86 152.87 172.86 149.89 163.03" style="fill:#231f20"/><path d="M81,107.78a19.45,19.45,0,0,0,4.33,27.16l19.69,14.3a4.89,4.89,0,0,1,1.08,6.8l3,2.15,10.4-14.35a19.28,19.28,0,0,0,3.71-11.38,20.43,20.43,0,0,0-.24-3.1,19.38,19.38,0,0,0-7.8-12.68l-19.69-14.3a4.91,4.91,0,0,1-1.95-3.17,5.22,5.22,0,0,1-.06-.78,4.84,4.84,0,0,1,.92-2.84h0l-3-2.15Z" style="fill:#231f20"/><path d="M92.91,50.28a28,28,0,0,0-5.38,16.5,28.32,28.32,0,0,0,.36,4.49,28,28,0,0,0,11.3,18.4l24.75,17.92a15.11,15.11,0,0,1,3.36,21.11h0l2.37,1.72,19.5-26.95a28.2,28.2,0,0,0-6.28-39.39L113,42.37a8.69,8.69,0,0,1-1.94-12.15l-2.37-1.71Z" style="fill:#231f20"/><path d="M42.36,194.64H64.9c5.55,0,9.92,1.52,12.69,4.3a11.13,11.13,0,0,1,3.33,8.25v.14c0,5.48-2.92,8.53-6.38,10.47,5.62,2.15,9.08,5.41,9.08,11.93v.14c0,8.87-7.21,13.32-18.17,13.32H42.36Zm20.25,19.63c4.72,0,7.7-1.53,7.7-5.14V209c0-3.19-2.5-5-7-5H52.76v10.27Zm2.84,19.55c4.72,0,7.56-1.66,7.56-5.27v-.14c0-3.26-2.43-5.27-7.9-5.27H52.76v10.68Z" style="fill:#231f20"/><path d="M88.27,194.64h22.54c5.55,0,9.92,1.52,12.69,4.3a11.13,11.13,0,0,1,3.33,8.25v.14c0,5.48-2.91,8.53-6.38,10.47,5.62,2.15,9.08,5.41,9.08,11.93v.14c0,8.87-7.2,13.32-18.16,13.32H88.27Zm20.25,19.63c4.72,0,7.7-1.53,7.7-5.14V209c0-3.19-2.49-5-7-5H98.67v10.27Zm2.85,19.55c4.71,0,7.56-1.66,7.56-5.27v-.14c0-3.26-2.43-5.27-7.91-5.27H98.67v10.68Z" style="fill:#231f20"/><path d="M134.18,194.64h22.54c5.55,0,9.92,1.52,12.69,4.3a11.09,11.09,0,0,1,3.33,8.25v.14c0,5.48-2.91,8.53-6.38,10.47,5.62,2.15,9.09,5.41,9.09,11.93v.14c0,8.87-7.21,13.32-18.18,13.32H134.18Zm20.25,19.63c4.72,0,7.7-1.53,7.7-5.14V209c0-3.19-2.5-5-7-5H144.58v10.27Zm2.84,19.55c4.72,0,7.56-1.66,7.56-5.27v-.14c0-3.26-2.42-5.27-7.9-5.27H144.58v10.68Z" style="fill:#231f20"/><path d="M178.36,237.22a2,2,0,0,1-2,2,2,2,0,1,1,0-4A2,2,0,0,1,178.36,237.22Zm-3.54,0a1.53,1.53,0,0,0,1.54,1.58,1.51,1.51,0,0,0,1.5-1.56,1.52,1.52,0,1,0-3,0Zm1.22,1h-.46v-2a3.68,3.68,0,0,1,.76-.06,1.25,1.25,0,0,1,.68.14.55.55,0,0,1,.19.43.5.5,0,0,1-.41.46v0a.6.6,0,0,1,.36.48,1.55,1.55,0,0,0,.15.5h-.5a2.51,2.51,0,0,1-.15-.48.35.35,0,0,0-.41-.32H176Zm0-1.12h.21c.26,0,.46-.08.46-.29s-.13-.3-.42-.3a.73.73,0,0,0-.25,0Z" style="fill:#231f20"/></svg>