<svg xmlns="http://www.w3.org/2000/svg" viewBox="0 0 40 40"><defs><style>.cls-1{fill:#405de6;}</style></defs><title>instagram</title><g id="Layer_2" data-name="Layer 2"><g id="Social_Media" data-name="Social Media"><path class="cls-1" d="M20,25.28A5.29,5.29,0,0,0,25.28,20a5.28,5.28,0,0,0-10.56,0A5.29,5.29,0,0,0,20,25.28Z"/><polygon class="cls-1" points="31.53 13.54 31.53 9.12 31.53 8.46 30.86 8.46 26.44 8.47 26.46 13.56 31.53 13.54"/><path class="cls-1" d="M28.2,20a8.2,8.2,0,0,1-16.4,0,8.09,8.09,0,0,1,.6-3.08H7.92V29.2a2.88,2.88,0,0,0,2.88,2.88H29.2a2.88,2.88,0,0,0,2.88-2.88V16.92H27.6A8.28,8.28,0,0,1,28.2,20Z"/><path class="cls-1" d="M0,0V40H40V0ZM35,16.92V29.2A5.8,5.8,0,0,1,29.2,35H10.8A5.8,5.8,0,0,1,5,29.2V10.8A5.8,5.8,0,0,1,10.8,5H29.2A5.8,5.8,0,0,1,35,10.8Z"/></g></g></svg>