<svg xmlns="http://www.w3.org/2000/svg" viewBox="0 0 40 40"><defs><style>.cls-1{fill:#1da1f2;}</style></defs><title>twitter</title><g id="Layer_2" data-name="Layer 2"><g id="Social_Media" data-name="Social Media"><path class="cls-1" d="M0,0V40H40V0ZM26.88,35c-1.06,0-6.95-.14-8.46-.14a10.94,10.94,0,0,1-9.34-11V19.33c0-1.42,0-2.84-.05-4.25V13.85c0-2.15-.2-4.57.51-6.64A3.2,3.2,0,0,1,12.89,5c3.77,0,4,3.81,4,7.62H27.81c1.73,0,3,1.74,3,4.39S28,20.25,26.57,20.25H16.8c-.05,1.62-.1,2.94-.1,3.75,0,1.68.66,3.51,4.82,3.51h5.85c1.46,0,3.63,1.1,3.63,4.15S28,35,26.88,35Z"/></g></g></svg>