<svg xmlns="http://www.w3.org/2000/svg" viewBox="0 0 54.55 40"><defs><style>.cls-1{fill:red;}</style></defs><title>youtube</title><g id="Layer_2" data-name="Layer 2"><g id="Social_Media" data-name="Social Media"><g id="Lozenge"><path class="cls-1" d="M54,8.63S53.47,4.71,51.83,3A7.64,7.64,0,0,0,46.37.57C38.73,0,27.29,0,27.29,0h0S15.81,0,8.18.57A7.66,7.66,0,0,0,2.71,3C1.08,4.71.55,8.63.55,8.63A88.81,88.81,0,0,0,0,17.83v4.32a88.81,88.81,0,0,0,.55,9.2S1.08,35.27,2.71,37c2.08,2.26,4.81,2.19,6,2.43,4.36.43,18.54.57,18.54.57s11.46,0,19.1-.59A7.68,7.68,0,0,0,51.83,37C53.47,35.27,54,31.35,54,31.35a88.81,88.81,0,0,0,.55-9.2V17.83A88.81,88.81,0,0,0,54,8.63ZM21.64,27.38v-16l14.74,8Z"/></g></g></g></svg>