<svg xmlns="http://www.w3.org/2000/svg" xmlns:xlink="http://www.w3.org/1999/xlink" viewBox="0 0 200 200"><defs><pattern id="New_Pattern" data-name="New Pattern" width="146.44" height="200" patternUnits="userSpaceOnUse" viewBox="0 0 146.44 200"><rect width="146.44" height="200" style="fill:none"/><rect x="117.15" width="10" height="200"/><rect x="136.44" width="10" height="200"/><rect x="87.87" width="10" height="200"/><rect x="107.15" width="10" height="200"/><rect x="58.58" width="10" height="200"/><rect x="77.87" width="10" height="200"/><rect x="29.29" width="10" height="200"/><rect x="48.58" width="10" height="200"/><rect width="10" height="200"/><rect x="19.29" width="10" height="200"/></pattern><clipPath id="clip-path"><rect x="4.37" y="4.96" width="135.29" height="195.04" style="fill:none"/></clipPath><linearGradient id="linear-gradient" x1="15.58" y1="43.11" x2="20.99" y2="43.11" gradientTransform="translate(0.23 -0.11) rotate(0.3)" gradientUnits="userSpaceOnUse"><stop offset="0"/><stop offset="0.08" stop-color="#888" stop-opacity="0.47"/><stop offset="0.54" stop-color="#fff" stop-opacity="0"/><stop offset="0.78" stop-color="#f8f7f7" stop-opacity="0.04"/><stop offset="0.86" stop-color="#dcdcdc" stop-opacity="0.17"/><stop offset="0.92" stop-color="#adabac" stop-opacity="0.4"/><stop offset="0.97" stop-color="#6a6768" stop-opacity="0.73"/><stop offset="1" stop-color="#332f30"/></linearGradient><linearGradient id="linear-gradient-2" x1="20.99" y1="43.11" x2="26.41" y2="43.11" xlink:href="#linear-gradient"/><linearGradient id="linear-gradient-3" x1="41.24" y1="36.28" x2="46.66" y2="36.28" gradientTransform="translate(79.85 6.73) rotate(89.85)" xlink:href="#linear-gradient"/><linearGradient id="linear-gradient-4" x1="46.66" y1="36.28" x2="52.08" y2="36.28" gradientTransform="translate(79.85 6.73) rotate(89.85)" xlink:href="#linear-gradient"/><clipPath id="clip-path-2"><rect x="73.89" y="54.51" width="34.34" height="1.69" style="fill:none"/></clipPath><clipPath id="clip-path-3"><rect x="165.77" width="34.23" height="200" style="fill:none"/></clipPath><linearGradient id="linear-gradient-5" x1="15.91" y1="82.79" x2="21.32" y2="82.79" gradientTransform="translate(-0.08 -0.03) rotate(0.08)" xlink:href="#linear-gradient"/><linearGradient id="linear-gradient-6" x1="21.32" y1="85.29" x2="26.74" y2="85.29" gradientTransform="translate(-0.08 -0.03) rotate(0.08)" xlink:href="#linear-gradient"/><linearGradient id="linear-gradient-7" x1="26.74" y1="82.78" x2="32.15" y2="82.78" gradientTransform="translate(-0.08 -0.03) rotate(0.08)" xlink:href="#linear-gradient"/><linearGradient id="linear-gradient-8" x1="32.11" y1="82.07" x2="33.26" y2="82.07" gradientTransform="translate(-0.08 -0.03) rotate(0.08)" xlink:href="#linear-gradient"/></defs><title>book</title><g id="Layer_1" data-name="Layer 1"><rect width="200" height="200" style="fill:#6215ac"/><rect width="200" height="200" style="fill:#fff"/><rect x="-0.14" width="200.28" height="200" style="opacity:0.05;fill:url(#New_Pattern)"/></g><g id="Book_Shelf" data-name="Book Shelf"><g style="clip-path:url(#clip-path)"><rect x="9.29" y="11.32" width="125.8" height="211.22" style="fill:#42210b;stroke:#000;stroke-miterlimit:10;stroke-width:0.5px"/><rect x="15.28" y="17.38" width="113.81" height="41.86" style="fill:#754c24;stroke:#000;stroke-miterlimit:10;stroke-width:0.5px"/><rect x="15.41" y="64.19" width="113.81" height="34.65" style="fill:#754c24;stroke:#000;stroke-miterlimit:10;stroke-width:0.5px"/><rect x="15.28" y="103.84" width="113.81" height="34.38" style="fill:#754c24;stroke:#000;stroke-miterlimit:10;stroke-width:0.5px"/><rect x="15.41" y="143.22" width="113.81" height="34.38" style="fill:#754c24;stroke:#000;stroke-miterlimit:10;stroke-width:0.5px"/><rect x="15.41" y="182.17" width="113.81" height="34.38" style="fill:#754c24;stroke:#000;stroke-miterlimit:10;stroke-width:0.5px"/></g></g><g id="Planner"><path d="M20.91,58.9l.16-30.27v-1.3l-5.42,0v1.3L15.5,58.87" style="fill:#fef10d"/><polyline points="16.53 57 16.68 29.18 20.04 29.2 19.89 57.02" style="opacity:0.06"/><path d="M20.91,58.9l.16-30.27v-1.3l-5.42,0v1.3L15.5,58.87" style="opacity:0.1;fill:url(#linear-gradient)"/><path d="M26.33,58.93l.15-30.27v-1.3l-5.41,0v1.3L20.91,58.9" style="fill:#fef10d"/><polyline points="21.95 57.03 22.09 29.21 25.45 29.23 25.31 57.04" style="opacity:0.06"/><path d="M26.33,58.93l.15-30.27v-1.3l-5.41,0v1.3L20.91,58.9" style="opacity:0.1;fill:url(#linear-gradient-2)"/><path d="M27.9,53.52l30.28-.08h1.3l0-5.42h-1.3l-30.27.07" style="fill:#fef10d"/><polyline points="29.77 49.13 57.59 49.06 57.59 52.42 29.78 52.49" style="opacity:0.06"/><path d="M27.9,53.52l30.28-.08h1.3l0-5.42h-1.3l-30.27.07" style="opacity:0.1;fill:url(#linear-gradient-3)"/><path d="M27.92,58.94l30.27-.08h1.3V53.44h-1.3l-30.28.08" style="fill:#fef10d"/><polyline points="29.79 54.54 57.6 54.47 57.61 57.83 29.79 57.9" style="opacity:0.06"/><path d="M27.92,58.94l30.27-.08h1.3V53.44h-1.3l-30.28.08" style="opacity:0.1;fill:url(#linear-gradient-4)"/><path d="M107.92,53.75c-6.63-.08-34,0-34,0v.81h1c.65,1.7.62,2.48,0,3.58h-1V59h34C109,57.91,108.85,54.67,107.92,53.75Z" style="fill:none;stroke:#000;stroke-miterlimit:10"/><path d="M107.92,53.7c-6.63-.07-34,0-34,0v.81s26.67,0,33.12,0c.9.64,1,2.86,0,3.59H73.89v.82h34C109,57.86,108.85,54.62,107.92,53.7Z" style="fill:#bcf20d"/><path d="M107,58.1H74.94c.62-1.1.65-1.89,0-3.59,6.7,0,25.84,0,32.1,0C107.91,55.15,108.05,57.37,107,58.1Z" style="fill:#fff"/><g style="clip-path:url(#clip-path-2)"><path d="M107,58.1H74.94c.62-1.1.65-1.89,0-3.58,6.7,0,25.84-.05,32.1,0A2.62,2.62,0,0,1,107,58.1Z" style="fill:#f2f2f2"/></g><g style="clip-path:url(#clip-path-3)"><rect x="177.1" y="161.51" width="8.19" height="43.05" transform="translate(64.6 -46.61) rotate(17.79)" style="fill:#f2f2f2;stroke:#000;stroke-miterlimit:10;stroke-width:0.5px"/><rect x="165.77" y="155.8" width="200" height="9.3" style="fill:#f2f2f2;stroke:#000;stroke-miterlimit:10;stroke-width:0.5px"/></g></g><g id="Layer_6" data-name="Layer 6"><path d="M21.1,98.58l0-30.27V67H15.73v1.3l0,30.27" style="fill:#6215ac"/><rect x="15.73" y="69.04" width="5.41" height="1.89" style="fill:#5a149d"/><path d="M21.1,98.58l0-30.27V67H15.73v1.3l0,30.27" style="opacity:0.18;fill:url(#linear-gradient-5)"/><path d="M26.51,98.58l0-25.47V72H21.14V73.1l0,25.47" style="fill:#6215ac"/><rect x="21.14" y="73.72" width="5.41" height="1.59" style="fill:#5a149d"/><path d="M26.51,98.58l0-25.47V72H21.14V73.1l0,25.47" style="opacity:0.18;fill:url(#linear-gradient-6)"/><path d="M31.93,98.58l0-30.27V67H26.56v1.3l0,30.27" style="fill:#b90992"/><rect x="26.56" y="69.04" width="5.41" height="1.89" style="fill:#bf1f9b"/><path d="M31.93,98.58l0-30.27V67H26.56v1.3l0,30.27" style="opacity:0.18;fill:url(#linear-gradient-7)"/><path d="M33,98.58v-33H31.94v33" style="fill:#b90992"/><rect x="31.94" y="67.73" width="1.11" height="1.97" style="fill:#bf1f9b"/><path d="M33,98.58v-33H31.94v33" style="opacity:0.18;fill:url(#linear-gradient-8)"/></g><g id="Layer_9" data-name="Layer 9"><polyline points="15.61 67 21.15 67.01 21.14 72.01 26.56 72.02 26.56 67 31.94 66.95 31.94 65.6 33.05 65.61 33.04 98.58" style="fill:none;stroke:#000;stroke-miterlimit:10;stroke-width:0.5px"/></g><g id="Layer_7" data-name="Layer 7"><path d="M77.58,44a3.21,3.21,0,0,1,0,6.41A3.12,3.12,0,0,1,76.15,50L70.5,55.3a2.58,2.58,0,0,1,.21,1,2.43,2.43,0,1,1-2.42-2.6,2.25,2.25,0,0,1,1.14.32l5.48-5.14a3.15,3.15,0,0,1-.53-1.77,3.2,3.2,0,0,1,3.2-3.2m-9.29,14a1.59,1.59,0,1,0-1.59-1.59,1.59,1.59,0,0,0,1.59,1.59m9.29-14.48a3.7,3.7,0,0,0-3.7,3.7,3.62,3.62,0,0,0,.4,1.68l-4.94,4.63a2.74,2.74,0,0,0-1-.22,3.09,3.09,0,1,0,2.79,2.2l5.16-4.84a3.7,3.7,0,1,0,1.34-7.15Zm-9.29,14a1.09,1.09,0,1,1,1.09-1.09,1.09,1.09,0,0,1-1.09,1.09Z"/><path d="M76.15,50a3.11,3.11,0,0,1-1.24-1.08l-5.48,5.14a2.25,2.25,0,0,0-1.14-.32,2.61,2.61,0,1,0,2.42,2.6,2.58,2.58,0,0,0-.21-1Zm-7.86,7.93a1.59,1.59,0,1,1,1.59-1.59A1.59,1.59,0,0,1,68.29,57.93Z" style="fill:#29abe2"/><g style="opacity:0.5"><circle cx="77.58" cy="47.15" r="2.95" style="fill:#e6e6e6"/><path d="M77.58,44.45a2.71,2.71,0,1,1-2.7,2.7,2.7,2.7,0,0,1,2.7-2.7m0-.5a3.21,3.21,0,1,0,3.2,3.2,3.2,3.2,0,0,0-3.2-3.2Z" style="fill:#fff"/></g><circle cx="75.5" cy="47.18" r="0.37" style="fill:#29abe2"/><circle cx="75.06" cy="47.84" r="0.37" style="fill:#29abe2"/><circle cx="75.9" cy="47.84" r="0.37" style="fill:#29abe2"/><circle cx="75.46" cy="48.54" r="0.37" style="fill:#29abe2"/><circle cx="76.33" cy="48.54" r="0.37" style="fill:#29abe2"/><circle cx="75.83" cy="49.2" r="0.37" style="fill:#29abe2"/><circle cx="77.84" cy="48.98" r="0.37" style="fill:#29abe2"/><circle cx="77.21" cy="48.21" r="0.37" style="fill:#29abe2"/><circle cx="78.2" cy="49.65" r="0.37" style="fill:#29abe2"/><circle cx="77.02" cy="48.98" r="0.37" style="fill:#29abe2"/><circle cx="77.38" cy="49.8" r="0.37" style="fill:#29abe2"/><circle cx="76.56" cy="49.65" r="0.37" style="fill:#29abe2"/><circle cx="76.7" cy="47.54" r="0.37" style="fill:#29abe2"/><circle cx="76.23" cy="46.91" r="0.37" style="fill:#29abe2"/><circle cx="78.05" cy="48.19" r="0.37" style="fill:#29abe2"/><circle cx="79.36" cy="48.55" r="0.37" style="fill:#29abe2"/><circle cx="78.57" cy="48.77" r="0.37" style="fill:#29abe2"/><circle cx="79.05" cy="49.43" r="0.37" style="fill:#29abe2"/><circle cx="78.81" cy="47.89" r="0.37" style="fill:#29abe2"/></g><g id="Layer_5" data-name="Layer 5"><rect x="113.72" y="46.27" width="12.72" height="12.72" style="fill:#c69c6d"/><path d="M121,54.42h-2l-.28.94h-1.81l2.16-5.73H121l2.16,5.73H121.3Zm-.37-1.24L120,51.12l-.63,2.06Z" style="fill:#42210b"/><g style="opacity:0.21"><path d="M121,54.42h-2l-.28.94h-1.81l2.16-5.73H121l2.16,5.73H121.3Zm-.37-1.24L120,51.12l-.63,2.06Z" style="fill:none;stroke:#000;stroke-miterlimit:10;stroke-width:0.20000000298023224px"/></g><rect x="45.06" y="86.25" width="47.89" height="12.32" style="fill:#29abe2"/><rect x="45.06" y="86.5" width="47.89" height="6.66" style="fill:#0071bc;opacity:0.2"/><path d="M123.19,98.72H104.85L99.05,81a1,1,0,0,1,1-1.31h27.3a1,1,0,0,1,1,1.27Z" style="fill:#333"/><circle cx="114.22" cy="88.72" r="2.07" style="fill:#999"/><path d="M123.19,98.72H104.85L99.05,81a1,1,0,0,1,1-1.31h27.3a1,1,0,0,1,1,1.27Z" style="fill:none;stroke:#000;stroke-miterlimit:10;stroke-width:0.5px"/></g><g id="Layer_11" data-name="Layer 11"><g id="Camera"><path d="M27.75,122.58l.55-.74a2.29,2.29,0,0,1,1.84-.93h0a2.32,2.32,0,0,1,1.92,1l.42.64Z" style="fill:#1a1a1a;stroke:#000;stroke-miterlimit:10;stroke-width:0.5px"/><rect x="17.98" y="122.58" width="24.05" height="15.14" rx="1" style="fill:#902724;stroke:#000;stroke-miterlimit:10;stroke-width:0.5px"/><path d="M21.32,121.42h.91a1.17,1.17,0,0,1,1.17,1.17v0a0,0,0,0,1,0,0H20.15a0,0,0,0,1,0,0v0A1.17,1.17,0,0,1,21.32,121.42Z" style="fill:#1a1a1a;stroke:#000;stroke-miterlimit:10;stroke-width:0.5px"/><rect x="35.07" y="123.45" width="5.78" height="1.86" rx="0.93" style="fill:#ccc;stroke:#000;stroke-miterlimit:10;stroke-width:0.5px"/><circle cx="20.62" cy="124.37" r="1" style="fill:#9a3a37;stroke:#000;stroke-miterlimit:10;stroke-width:0.5px"/><circle cx="29.71" cy="130.76" r="5.07" style="fill:#1a1a1a;stroke:#000;stroke-miterlimit:10;stroke-width:0.5px"/><circle cx="29.71" cy="130.76" r="2.26" style="stroke:#000;stroke-miterlimit:10;stroke-width:0.5px"/></g><path d="M50.92,118h0c-.77-.24-1.1-1.35-.75-2.47l2-5.19c.35-1.12,1.27-1.83,2-1.59h0c.2,1.09.44,3.37.67,4.79l-.62,1.94A15.18,15.18,0,0,1,50.92,118Z" style="fill:#1a1a1a;stroke:#000;stroke-miterlimit:10;stroke-width:0.5px"/><polygon points="64.35 118.91 53.99 116.04 54.83 112.99 66.18 116.13 64.35 118.91" style="fill:#1a1a1a;stroke:#000;stroke-miterlimit:10;stroke-width:0.5px"/><path d="M91.1,122H84.86l-2.16-4.33c-.55-1-.79-1.52-1.75-1.52H64.52a1.66,1.66,0,0,0-1.75,1.52v9.13a1.65,1.65,0,0,0,1.75,1.52H65v7.75a2,2,0,0,0,2,2H91.1a2,2,0,0,0,2-2V124A2,2,0,0,0,91.1,122Zm-9.82.38H66.06c-.69,0-1.26-.25-1.26-.56v-3.37c0-.31.57-.56,1.26-.56H79.78a1.46,1.46,0,0,1,1.26.56l1.51,3.37C82.55,122.11,82,122.36,81.28,122.36Z" style="fill:#1a1a1a;stroke:#000;stroke-miterlimit:10;stroke-width:0.5px"/><rect x="93.1" y="125.75" width="2.84" height="8.63" rx="1" style="fill:#1a1a1a;stroke:#000;stroke-miterlimit:10;stroke-width:0.5px"/><path d="M102.51,137.28h0c-2.8-1.63-5.07-2.9-6.58-3.86v-7.18c2.46-2.41,5.6-5.91,6.58-6.48h0a2.28,2.28,0,0,1,2.27,2.28v13A2.28,2.28,0,0,1,102.51,137.28Z" style="fill:#1a1a1a;stroke:#000;stroke-miterlimit:10;stroke-width:0.5px"/><path d="M71.53,130.42c0-2.11,1.26-3.81,2.86-3.94l14.15,0c.41,0,.75.45.75,1v5.92c0,.55-.34,1-.75,1l-14.15,0C72.79,134.23,71.53,132.52,71.53,130.42Z" style="fill:#1a1a1a;stroke:#000;stroke-miterlimit:10;stroke-width:0.5px"/><circle cx="75.9" cy="130.34" r="2.82" style="fill:#b3b3b3;stroke:#000;stroke-miterlimit:10;stroke-width:0.5px"/><path d="M22.55,153h0a3.67,3.67,0,0,1,3.67,3.67V177.4a0,0,0,0,1,0,0H18.88a0,0,0,0,1,0,0V156.64A3.67,3.67,0,0,1,22.55,153Z" style="fill:#4d4d4d;stroke:#000;stroke-miterlimit:10;stroke-width:0.5px"/><circle cx="22.55" cy="155.46" r="1" style="fill:#ccc;opacity:0.6"/><rect x="20.01" y="171.4" width="5.07" height="5.23" rx="0.2" style="fill:#1a1a1a"/><path d="M24.86,176.2h-.19v-4.36h.19a.22.22,0,0,0,0-.44H20.23a.22.22,0,0,0,0,.44h.17v4.36h-.17a.22.22,0,0,0-.22.22.21.21,0,0,0,.22.21h4.63a.21.21,0,0,0,.22-.21A.22.22,0,0,0,24.86,176.2Zm-.41-4.36v4.36h-.4v-4.36Zm-.62,0v4.36h-.49v-4.36Zm-.71,0v4.36h-.46v-4.36Zm-.68,0v4.36H22v-4.36Zm-.64,0v4.36h-.47v-4.36Zm-1.17,0h.48v4.36h-.48Z" style="fill:#333"/><circle cx="22.55" cy="158.16" r="0.7" style="fill:#ccc;opacity:0.6"/><circle cx="22.55" cy="160.28" r="0.49" style="fill:#ccc;opacity:0.6"/><circle cx="22.55" cy="162.05" r="0.34" style="fill:#ccc;opacity:0.6"/></g><g id="Layer_10" data-name="Layer 10"><polyline points="45.06 98.58 45.06 86.25 92.94 86.25 92.94 98.58" style="fill:none;stroke:#000;stroke-miterlimit:10;stroke-width:0.5px"/></g><g id="Layer_8" data-name="Layer 8"><line x1="15.66" y1="27.3" x2="26.49" y2="27.36" style="fill:none"/><polyline points="26.33 59.06 26.49 27.36 15.49 27.3" style="fill:none;stroke:#000;stroke-miterlimit:10;stroke-width:0.5px"/><polyline points="27.92 59.06 27.89 48.1 59.46 48.02 59.49 59.15" style="fill:none;stroke:#000;stroke-miterlimit:10;stroke-width:0.5px"/><polyline points="113.72 58.99 113.65 46.27 126.44 46.27 126.44 58.99" style="fill:none;stroke:#000;stroke-miterlimit:10;stroke-width:0.5px"/></g></svg>