<svg xmlns="http://www.w3.org/2000/svg" xmlns:xlink="http://www.w3.org/1999/xlink" viewBox="0 0 200 200"><defs><pattern id="New_Pattern" data-name="New Pattern" width="146.44" height="200" patternUnits="userSpaceOnUse" viewBox="0 0 146.44 200"><rect width="146.44" height="200" style="fill:none"/><rect x="117.15" width="10" height="200"/><rect x="136.44" width="10" height="200"/><rect x="87.87" width="10" height="200"/><rect x="107.15" width="10" height="200"/><rect x="58.58" width="10" height="200"/><rect x="77.87" width="10" height="200"/><rect x="29.29" width="10" height="200"/><rect x="48.58" width="10" height="200"/><rect width="10" height="200"/><rect x="19.29" width="10" height="200"/></pattern><clipPath id="clip-path"><rect x="57.78" y="173.13" width="87.13" height="26.87" style="fill:none"/></clipPath><clipPath id="clip-path-2"><rect x="59.14" y="175.29" width="81.46" height="4.74" style="fill:none"/></clipPath><clipPath id="clip-path-3"><rect width="200" height="200" style="fill:none"/></clipPath></defs><title>business-package</title><g id="BG"><rect width="200" height="200" style="fill:#fff"/></g><g id="Stripes"><rect x="-0.14" width="200.28" height="200" style="opacity:0.05;fill:url(#New_Pattern)"/></g><g id="Board"><g id="Wires"><polygon points="55.26 48.52 99.73 33.37 100 34.13 100.27 33.37 144.74 48.52 144.19 50.05 100 34.99 55.8 50.05 55.26 48.52"/><path d="M100,36.05a1.92,1.92,0,1,0-2-1.92A1.94,1.94,0,0,0,100,36.05Z" style="fill:#c69c6d;fill-rule:evenodd"/></g><g id="BG-2" data-name="BG"><rect x="30" y="48.99" width="140" height="79.3" style="fill:#fff;stroke:#000;stroke-miterlimit:10;stroke-width:0.5px"/><rect x="30" y="43.39" width="140" height="5.6" style="fill:#fb4f93;stroke:#000;stroke-miterlimit:10;stroke-width:0.5px"/></g></g><g id="Board_Contents" data-name="Board Contents"><polygon points="149.08 82.31 142.65 82.31 142.65 74.82 150.51 74.82 150.51 80.51 149.08 82.31" style="fill:#b3b3b3;stroke:#000;stroke-miterlimit:10;stroke-width:0.25px;opacity:0.22"/><polygon points="148.9 82.04 142.47 82.04 142.47 74.54 150.33 74.54 150.33 80.23 148.9 82.04" style="fill:#fed1dc;stroke:#000;stroke-miterlimit:10;stroke-width:0.25px"/><rect x="142.47" y="74.54" width="7.86" height="1.31" style="fill:#e8b6ac;stroke:#000;stroke-miterlimit:10;stroke-width:0.25px"/><polygon points="148.9 82.04 148.8 80.23 150.33 80.23 148.9 82.04" style="fill:#e8b6ac;stroke:#000;stroke-miterlimit:10;stroke-width:0.25px"/><polygon points="161.07 76.48 154.84 78.14 153.07 70.88 160.69 68.85 162.03 74.37 161.07 76.48" style="fill:#b3b3b3;stroke:#000;stroke-miterlimit:10;stroke-width:0.25px;opacity:0.22"/><polygon points="160.83 76.26 154.6 77.92 152.84 70.66 160.46 68.63 161.79 74.15 160.83 76.26" style="fill:#fed1dc;stroke:#000;stroke-miterlimit:10;stroke-width:0.25px"/><polygon points="160.76 69.9 153.15 71.93 152.84 70.66 160.46 68.63 160.76 69.9" style="fill:#e8b6ac;stroke:#000;stroke-miterlimit:10;stroke-width:0.25px"/><polygon points="160.83 76.26 160.31 74.54 161.79 74.15 160.83 76.26" style="fill:#e8b6ac;stroke:#000;stroke-miterlimit:10;stroke-width:0.25px"/><line x1="142.99" y1="76.51" x2="149.28" y2="76.51" style="fill:none;stroke:#000;stroke-linecap:round;stroke-linejoin:round;stroke-width:0.25px;opacity:0.5"/><line x1="142.99" y1="77.17" x2="149.28" y2="77.17" style="fill:none;stroke:#000;stroke-linecap:round;stroke-linejoin:round;stroke-width:0.25px;opacity:0.5"/><line x1="142.99" y1="77.87" x2="149.28" y2="77.87" style="fill:none;stroke:#000;stroke-linecap:round;stroke-linejoin:round;stroke-width:0.25px;opacity:0.5"/><line x1="142.99" y1="78.5" x2="147.18" y2="78.5" style="fill:none;stroke:#000;stroke-linecap:round;stroke-linejoin:round;stroke-width:0.25px;opacity:0.5"/><line x1="145.88" y1="79.92" x2="148.22" y2="79.92" style="fill:none;stroke:#000;stroke-linecap:round;stroke-linejoin:round;stroke-width:0.25px;opacity:0.5"/><line x1="153.86" y1="72.48" x2="159.93" y2="70.78" style="fill:none;stroke:#000;stroke-linecap:round;stroke-linejoin:round;stroke-width:0.25px;opacity:0.5"/><line x1="154.02" y1="73.11" x2="160.09" y2="71.41" style="fill:none;stroke:#000;stroke-linecap:round;stroke-linejoin:round;stroke-width:0.25px;opacity:0.5"/><line x1="154.19" y1="73.79" x2="160.27" y2="72.09" style="fill:none;stroke:#000;stroke-linecap:round;stroke-linejoin:round;stroke-width:0.25px;opacity:0.5"/><line x1="154.35" y1="74.4" x2="158.39" y2="73.27" style="fill:none;stroke:#000;stroke-linecap:round;stroke-linejoin:round;stroke-width:0.25px;opacity:0.5"/><line x1="157.49" y1="74.99" x2="159.75" y2="74.36" style="fill:none;stroke:#000;stroke-linecap:round;stroke-linejoin:round;stroke-width:0.25px;opacity:0.5"/><polygon points="147.81 67.82 142.07 64.76 145.31 58.09 152.32 61.82 149.86 66.89 147.81 67.82" style="fill:#b3b3b3;stroke:#000;stroke-miterlimit:10;stroke-width:0.25px;opacity:0.22"/><polygon points="147.77 67.49 142.03 64.43 145.27 57.76 152.28 61.49 149.82 66.56 147.77 67.49" style="fill:#fed1dc;stroke:#000;stroke-miterlimit:10;stroke-width:0.25px"/><polygon points="151.71 62.66 144.71 58.92 145.27 57.76 152.28 61.49 151.71 62.66" style="fill:#e8b6ac;stroke:#000;stroke-miterlimit:10;stroke-width:0.25px"/><polygon points="147.77 67.49 148.46 65.83 149.82 66.56 147.77 67.49" style="fill:#e8b6ac;stroke:#000;stroke-miterlimit:10;stroke-width:0.25px"/><line x1="144.9" y1="59.83" x2="150.54" y2="62.74" style="fill:none;stroke:#000;stroke-linecap:round;stroke-linejoin:round;stroke-width:0.25px;opacity:0.5"/><line x1="144.62" y1="60.42" x2="150.26" y2="63.33" style="fill:none;stroke:#000;stroke-linecap:round;stroke-linejoin:round;stroke-width:0.25px;opacity:0.5"/><line x1="144.32" y1="61.04" x2="149.97" y2="63.96" style="fill:none;stroke:#000;stroke-linecap:round;stroke-linejoin:round;stroke-width:0.25px;opacity:0.5"/><line x1="144.06" y1="61.61" x2="147.81" y2="63.56" style="fill:none;stroke:#000;stroke-linecap:round;stroke-linejoin:round;stroke-width:0.25px;opacity:0.5"/><line x1="146.05" y1="64.23" x2="148.15" y2="65.32" style="fill:none;stroke:#000;stroke-linecap:round;stroke-linejoin:round;stroke-width:0.25px;opacity:0.5"/><g id="BG-3" data-name="BG"><rect x="41.86" y="59.67" width="30.74" height="43.4" style="fill:#fff;stroke:#000;stroke-miterlimit:10;stroke-width:0.25px"/><polygon points="46.01 59.64 41.02 62.65 40.47 61.65 45.46 58.64 46.01 59.64" style="fill:#f1b8ab;stroke:#000;stroke-miterlimit:10;stroke-width:0.25px"/><polygon points="72.44 63.43 69.97 57.98 70.97 57.48 73.43 62.94 72.44 63.43" style="fill:#f1b8ab;stroke:#000;stroke-miterlimit:10;stroke-width:0.25px"/><polygon points="74.47 101.23 69.48 104.25 68.92 103.25 73.92 100.23 74.47 101.23" style="fill:#f1b8ab;stroke:#000;stroke-miterlimit:10;stroke-width:0.25px"/><polygon points="44.62 104.78 40.55 100.52 41.33 99.7 45.4 103.97 44.62 104.78" style="fill:#f1b8ab;stroke:#000;stroke-miterlimit:10;stroke-width:0.25px"/></g><g id="Photo"><rect x="44.4" y="64.86" width="7.19" height="7.53" style="fill:#e6e6e6"/><ellipse cx="47.86" cy="68.52" rx="1.42" ry="1.48" style="fill:#666"/><path d="M45.75,72.38S46.7,70,47.86,70,50,72.38,50,72.38Z" style="fill:gray"/></g><g id="Lines"><line x1="53.39" y1="65.26" x2="70.3" y2="65.26" style="fill:none;stroke:#b3b3b3;stroke-linecap:round;stroke-linejoin:round"/><line x1="53.39" y1="67.04" x2="70.3" y2="67.04" style="fill:none;stroke:#b3b3b3;stroke-linecap:round;stroke-linejoin:round"/><line x1="53.39" y1="68.52" x2="70.3" y2="68.52" style="fill:none;stroke:#b3b3b3;stroke-linecap:round;stroke-linejoin:round"/><line x1="53.39" y1="70.14" x2="70.3" y2="70.14" style="fill:none;stroke:#b3b3b3;stroke-linecap:round;stroke-linejoin:round"/><line x1="53.39" y1="71.57" x2="70.3" y2="71.57" style="fill:none;stroke:#b3b3b3;stroke-linecap:round;stroke-linejoin:round"/><line x1="44.4" y1="74.32" x2="70.3" y2="74.32" style="fill:none;stroke:#b3b3b3;stroke-linecap:round;stroke-linejoin:round"/><line x1="44.4" y1="76.25" x2="70.3" y2="76.25" style="fill:none;stroke:#b3b3b3;stroke-linecap:round;stroke-linejoin:round"/><line x1="44.28" y1="78.22" x2="70.18" y2="78.22" style="fill:none;stroke:#b3b3b3;stroke-linecap:round;stroke-linejoin:round"/><line x1="44.28" y1="80.15" x2="70.18" y2="80.15" style="fill:none;stroke:#b3b3b3;stroke-linecap:round;stroke-linejoin:round"/><line x1="44.28" y1="82.03" x2="70.18" y2="82.03" style="fill:none;stroke:#b3b3b3;stroke-linecap:round;stroke-linejoin:round"/><line x1="44.28" y1="83.97" x2="70.18" y2="83.97" style="fill:none;stroke:#b3b3b3;stroke-linecap:round;stroke-linejoin:round"/><line x1="44.15" y1="85.93" x2="70.05" y2="85.93" style="fill:none;stroke:#b3b3b3;stroke-linecap:round;stroke-linejoin:round"/><line x1="44.15" y1="87.87" x2="70.05" y2="87.87" style="fill:none;stroke:#b3b3b3;stroke-linecap:round;stroke-linejoin:round"/><line x1="44.34" y1="89.88" x2="70.24" y2="89.88" style="fill:none;stroke:#b3b3b3;stroke-linecap:round;stroke-linejoin:round"/><line x1="44.34" y1="91.81" x2="70.24" y2="91.81" style="fill:none;stroke:#b3b3b3;stroke-linecap:round;stroke-linejoin:round"/><line x1="44.21" y1="93.78" x2="70.12" y2="93.78" style="fill:none;stroke:#b3b3b3;stroke-linecap:round;stroke-linejoin:round"/><line x1="44.21" y1="95.71" x2="70.12" y2="95.71" style="fill:none;stroke:#b3b3b3;stroke-linecap:round;stroke-linejoin:round"/></g></g><g id="Stool"><g style="clip-path:url(#clip-path)"><path d="M136.5,177.93H64.38a2.63,2.63,0,0,0,0,5.26H87.56c0,.1,0,.2,0,.3a2.94,2.94,0,0,0,2.93,2.94h6.15s0,0,0,0A1.58,1.58,0,0,0,98.18,188h.57v12.37h3.38V188h.57a1.58,1.58,0,0,0,1.58-1.58s0,0,0,0h6.15a2.94,2.94,0,0,0,2.93-2.94c0-.1,0-.2,0-.3H136.5a2.63,2.63,0,0,0,0-5.26Z" style="stroke:#000;stroke-miterlimit:10"/><rect x="98.75" y="186.9" width="3.39" height="13.51" style="fill:#4d4d4d"/><rect x="96.6" y="184.88" width="7.68" height="3.16" rx="1.58" style="fill:gray"/><rect x="87.53" y="180.56" width="25.83" height="5.87" rx="2.93" style="fill:#666"/><rect x="61.76" y="177.93" width="77.37" height="5.26" rx="2.63"/><g style="clip-path:url(#clip-path-2)"><rect x="61.76" y="177.93" width="77.37" height="5.26" rx="2.63" style="fill:#b90992"/></g></g></g><g id="Stool_Stitch" data-name="Stool Stitch"><g style="opacity:0.5"><line x1="61.81" y1="180.03" x2="62.81" y2="180.03" style="fill:none;stroke:#fff;stroke-miterlimit:10;stroke-width:0.25px"/><line x1="64.84" y1="180.03" x2="137.05" y2="180.03" style="fill:none;stroke:#fff;stroke-miterlimit:10;stroke-width:0.25px;stroke-dasharray:2.03408145904541,2.03408145904541"/><line x1="138.07" y1="180.03" x2="139.07" y2="180.03" style="fill:none;stroke:#fff;stroke-miterlimit:10;stroke-width:0.25px"/></g></g><g id="Table"><g style="clip-path:url(#clip-path-3)"><rect x="11.33" y="161.51" width="8.19" height="43.05" transform="translate(56.67 4.04) rotate(17.79)" style="fill:#f2f2f2;stroke:#000;stroke-miterlimit:10;stroke-width:0.5px"/><rect x="181.95" y="162.82" width="8.19" height="43.05" transform="translate(419.52 303.02) rotate(162.21)" style="fill:#f2f2f2;stroke:#000;stroke-miterlimit:10;stroke-width:0.5px"/><rect y="155.8" width="200" height="9.3" style="fill:#f2f2f2;stroke:#000;stroke-miterlimit:10;stroke-width:0.5px"/></g></g><g id="Briefcase"><rect x="60.24" y="146.81" width="79.52" height="8.99" style="fill:#1a1a1a;stroke:#000;stroke-miterlimit:10;stroke-width:0.5px"/><rect x="65.63" y="147.21" width="4.05" height="8.22" style="fill:#333"/><rect x="131.27" y="147.08" width="4.05" height="8.47" style="fill:#333"/><path d="M112.65,150.27h-.8v6.85a2,2,0,0,1-2,2H89.9a2,2,0,0,1-2-2v-6.85h-.55a2,2,0,0,0-2,2v7a2,2,0,0,0,2,2h25.3a2,2,0,0,0,2-2v-7A2,2,0,0,0,112.65,150.27Z" style="fill:#ccc;stroke:#000;stroke-miterlimit:10;stroke-width:0.5px;fill-rule:evenodd"/></g></svg>