<svg xmlns="http://www.w3.org/2000/svg" viewBox="0 0 200 200"><title>social-media</title><g id="Layer_1" data-name="Layer 1"><g style="opacity:0.3"><rect width="200" height="200" style="fill:#fff"/></g></g><g id="Layer_2" data-name="Layer 2"><rect width="200" height="7" style="fill:#4267b2"/><rect x="3" y="11" width="72" height="3" style="fill:#e6e6e6"/><rect x="3" y="18" width="72" height="3" style="fill:#e6e6e6"/><rect x="3" y="25" width="72" height="3" style="fill:#e6e6e6"/><rect x="3" y="32" width="72" height="3" style="fill:#e6e6e6"/><rect x="3" y="39" width="72" height="3" style="fill:#e6e6e6"/><rect x="3" y="46" width="72" height="3" style="fill:#e6e6e6"/><rect x="3" y="53" width="72" height="3" style="fill:#e6e6e6"/><rect x="3" y="60" width="72" height="3" style="fill:#e6e6e6"/><rect x="3" y="67" width="72" height="3" style="fill:#e6e6e6"/><rect x="3" y="74" width="72" height="3" style="fill:#e6e6e6"/><rect x="3" y="81" width="72" height="3" style="fill:#e6e6e6"/><rect x="3" y="88" width="72" height="3" style="fill:#e6e6e6"/><rect x="3" y="95" width="72" height="3" style="fill:#e6e6e6"/><rect x="3" y="102" width="72" height="3" style="fill:#e6e6e6"/><rect x="3" y="109" width="72" height="3" style="fill:#e6e6e6"/><rect x="3" y="116" width="72" height="3" style="fill:#e6e6e6"/><rect x="81" y="11" width="110" height="54" style="fill:#e6e6e6"/><rect x="81" y="67" width="72" height="3" style="fill:#e6e6e6"/><rect x="81" y="72" width="110" height="2" style="fill:#e6e6e6"/><rect x="81" y="76" width="110" height="2" style="fill:#e6e6e6"/><rect x="81" y="80" width="110" height="2" style="fill:#e6e6e6"/><rect x="81" y="88" width="110" height="54" style="fill:#e6e6e6"/><rect x="81" y="144" width="72" height="3" style="fill:#e6e6e6"/><rect x="81" y="149" width="110" height="2" style="fill:#e6e6e6"/><rect x="81" y="153" width="110" height="2" style="fill:#e6e6e6"/><rect x="81" y="157" width="110" height="2" style="fill:#e6e6e6"/><rect x="81" y="163" width="110" height="37" style="fill:#e6e6e6"/><rect x="3" y="123" width="72" height="3" style="fill:#e6e6e6"/><rect x="3" y="130" width="72" height="3" style="fill:#e6e6e6"/><rect x="3" y="137" width="72" height="3" style="fill:#e6e6e6"/><rect x="3" y="144" width="72" height="3" style="fill:#e6e6e6"/><rect x="3" y="151" width="72" height="3" style="fill:#e6e6e6"/><rect x="3" y="158" width="72" height="3" style="fill:#e6e6e6"/><rect x="3" y="165" width="72" height="3" style="fill:#e6e6e6"/><rect x="3" y="172" width="72" height="3" style="fill:#e6e6e6"/><rect x="3" y="179" width="72" height="3" style="fill:#e6e6e6"/></g></svg>