<svg xmlns="http://www.w3.org/2000/svg" xmlns:xlink="http://www.w3.org/1999/xlink" viewBox="0 0 200 200"><defs><pattern id="New_Pattern" data-name="New Pattern" width="146.44" height="200" patternUnits="userSpaceOnUse" viewBox="0 0 146.44 200"><rect width="146.44" height="200" style="fill:none"/><rect x="117.15" width="10" height="200"/><rect x="136.44" width="10" height="200"/><rect x="87.87" width="10" height="200"/><rect x="107.15" width="10" height="200"/><rect x="58.58" width="10" height="200"/><rect x="77.87" width="10" height="200"/><rect x="29.29" width="10" height="200"/><rect x="48.58" width="10" height="200"/><rect width="10" height="200"/><rect x="19.29" width="10" height="200"/></pattern><clipPath id="clip-path"><rect x="189.4" y="129.01" width="10.6" height="27.34" style="fill:none"/></clipPath><clipPath id="clip-path-2"><rect width="200" height="200" style="fill:none"/></clipPath></defs><title>web-maintenance</title><g style="isolation:isolate"><g id="Layer_8" data-name="Layer 8"><rect width="200" height="200" style="fill:#fff"/></g><g id="Layer_10" data-name="Layer 10"><rect x="-0.28" width="200.28" height="200" style="opacity:0.05;fill:url(#New_Pattern)"/></g><g id="Computer"><g id="Computer-2" data-name="Computer"><rect x="71.72" y="145.71" width="53.02" height="10.67" rx="1" style="fill:#f2f2f2;stroke:#000;stroke-miterlimit:10;stroke-width:0.5px"/><rect x="80.53" y="137.34" width="36.53" height="8.37" style="fill:#ccc;stroke:#000;stroke-miterlimit:10;stroke-width:0.5px"/><path id="Border" d="M177.55,126.69l.08-80a2.85,2.85,0,0,0-3-2.57L25.51,44a2.84,2.84,0,0,0-3.05,2.56l-.08,80Z" style="stroke:#000;stroke-miterlimit:10;stroke-width:0.5px"/><path id="Bottom_Display" data-name="Bottom Display" d="M22.38,126.54v8.77c0,1.08,1.36,2,3.05,2l149.07.14c1.68,0,3-.87,3-1.95v-8.77Z" style="fill:#e6e6e6;stroke:#000;stroke-miterlimit:10;stroke-width:0.5px"/><rect id="Scren" x="27.14" y="48.54" width="145.6" height="73.3" style="fill:#1a1a1a;stroke:#000;stroke-miterlimit:10;stroke-width:0.5px"/></g></g><g id="Gears"><path d="M133.67,78.76V72.33H127.6a13.93,13.93,0,0,0-1.91-4.47l4.16-4.4L125.19,59,121,63.44a13.89,13.89,0,0,0-3.83-1.53V55.85h-6.43v6.06a12.16,12.16,0,0,0-3.83,1.53L102.76,59,98.1,63.46l4.16,4.4a14,14,0,0,0-1.92,4.47H94.28v6.43h6.06a14.14,14.14,0,0,0,1.92,4.47l-4.16,4.4,4.66,4.42,4.17-4.4a14.19,14.19,0,0,0,3.83,1.52v6.07h6.43V89.17A14.19,14.19,0,0,0,121,87.65l4.17,4.4,4.66-4.42-4.16-4.4a14.12,14.12,0,0,0,1.91-4.47ZM114,83.09a7.55,7.55,0,1,1,7.55-7.55A7.55,7.55,0,0,1,114,83.09Z" style="fill:#b3b3b3;stroke:#000;stroke-miterlimit:10;stroke-width:0.5px"/><path d="M104.81,98.39V92.08H98.87A13.58,13.58,0,0,0,97,87.7l4.09-4.31L96.5,79.06l-4.08,4.31a13.73,13.73,0,0,0-3.75-1.49V75.94H82.36v5.94a12.06,12.06,0,0,0-3.75,1.49l-4.08-4.31L70,83.39,74,87.7a13.58,13.58,0,0,0-1.88,4.38H66.22v6.31h5.94A13.58,13.58,0,0,0,74,102.77L70,107.08l4.58,4.33,4.08-4.31a13.73,13.73,0,0,0,3.75,1.49v5.94h6.31v-5.94a13.73,13.73,0,0,0,3.75-1.49l4.08,4.31,4.58-4.33L97,102.77a13.58,13.58,0,0,0,1.88-4.38Zm-19.29,4.24a7.4,7.4,0,1,1,7.39-7.39A7.39,7.39,0,0,1,85.52,102.63Z" style="fill:#b3b3b3;stroke:#000;stroke-miterlimit:10;stroke-width:0.5px"/></g><g id="Computer_Glare" data-name="Computer Glare"><polygon points="172.71 121.91 124.51 121.91 76.31 48.47 172.71 48.47 172.71 121.91" style="fill:#f2f2f2;opacity:0.1"/></g><g id="Mouse"><path d="M160.19,154.19a1.34,1.34,0,0,0-.07.18.69.69,0,0,0-.05.13c0,.05,0,.11,0,.16l0,.11,0,.15s0,.06,0,.09,0,.09,0,.13a.17.17,0,0,1,0,.07.28.28,0,0,1,0,.09v.14h10.5a3.7,3.7,0,0,0-.47-1.58h0c-.55-1-1.77-2.08-4.4-2.18v-.24a.43.43,0,0,0-.85,0v.24c-2.61.12-3.8,1.2-4.34,2.19v0l-.09.18Z" style="fill:#dbdcdd;stroke:#000;stroke-miterlimit:10;stroke-width:0.75px"/><path d="M165.15,152.94h0a.41.41,0,0,1-.43-.39v-1.06a.41.41,0,0,1,.43-.4h0a.41.41,0,0,1,.42.4v1.06A.4.4,0,0,1,165.15,152.94Z" style="fill:#4d4e4e"/><path d="M170.44,155.49h-10.5s0-3.78,5.23-3.78,5.27,3.78,5.27,3.78" style="fill:#f2f2f2"/><path d="M170,153.91c0,.07.43,1.07-4.78,1.07-5.4,0-4.8-1.07-4.8-1.08a3.55,3.55,0,0,0-.45,1.59h10.5" style="fill:#dbdcdd"/></g><g id="Keyboard"><polygon points="63.74 152.25 63.74 151.77 61.6 151.77 61.6 152.25 60.63 152.25 60.63 151.77 58.48 151.77 58.48 152.25 57.51 152.25 57.51 151.77 55.36 151.77 55.36 152.25 54.39 152.25 54.39 151.77 52.24 151.77 52.24 152.25 51.27 152.25 51.27 151.77 49.12 151.77 49.12 152.25 48.15 152.25 48.15 151.77 46.01 151.77 46.01 152.25 45.03 152.25 45.03 151.77 21.05 151.77 21.05 152.25 20.08 152.25 20.08 151.77 17.94 151.77 17.94 152.25 16.96 152.25 16.96 151.77 14.82 151.77 14.82 152.25 13.85 152.25 13.85 151.77 11.7 151.77 11.7 152.25 9.72 152.25 9.72 154.23 10.68 154.23 10.68 155.43 64.76 155.43 64.76 154.23 65.72 154.23 65.72 152.25 63.74 152.25" style="fill:#e5e5e5;stroke:#000;stroke-miterlimit:10"/><rect x="9.72" y="152.25" width="56" height="1.98" style="fill:#e6e6e6"/><rect x="10.68" y="154.23" width="54.08" height="1.19" style="fill:#f7f7f7"/><rect x="11.7" y="151.77" width="2.15" height="0.48" style="fill:#e5e5e5"/><rect x="14.82" y="151.77" width="2.15" height="0.48" style="fill:#e5e5e5"/><rect x="17.94" y="151.77" width="2.15" height="0.48" style="fill:#e5e5e5"/><rect x="21.06" y="151.77" width="23.98" height="0.48" style="fill:#e5e5e5"/><rect x="46" y="151.77" width="2.15" height="0.48" style="fill:#e5e5e5"/><rect x="49.12" y="151.77" width="2.15" height="0.48" style="fill:#e5e5e5"/><rect x="52.24" y="151.77" width="2.15" height="0.48" style="fill:#e5e5e5"/><rect x="55.36" y="151.77" width="2.15" height="0.48" style="fill:#e5e5e5"/><rect x="58.48" y="151.77" width="2.15" height="0.48" style="fill:#e5e5e5"/><rect x="61.6" y="151.77" width="2.15" height="0.48" style="fill:#e5e5e5"/></g><g id="Pencils"><g style="clip-path:url(#clip-path)"><polygon points="201.78 151.59 200.07 151.35 199.94 151.73 201.65 151.97 201.78 151.59" style="fill:#0f375b"/><polygon points="201.78 151.59 200.07 151.35 199.94 151.73 201.65 151.97 201.78 151.59" style="fill:#1f3437"/><polygon points="201.31 153 199.59 152.77 199.94 151.73 201.65 151.97 201.31 153" style="fill:#f2ebd9"/><polygon points="198.51 154.04 198.43 153.65 195.04 136.26 194.09 134.93 194.14 134.93 193.7 133.95 193.66 134.97 193.71 134.97 193.3 136.4 196.69 153.79 196.77 154.18 196.97 155.22 198.71 155.09 198.51 154.04" style="fill:#1f3437;stroke:#000;stroke-miterlimit:10;stroke-width:0.5px"/><polygon points="198.43 153.65 196.69 153.79 193.3 136.4 195.04 136.26 198.43 153.65" style="fill:#63cba2"/><polygon points="197.27 153.75 196.69 153.79 193.3 136.4 193.88 136.35 197.27 153.75" style="fill:#e6e6e6;mix-blend-mode:multiply"/><polygon points="198.43 153.65 196.69 153.79 196.77 154.18 198.51 154.04 198.43 153.65" style="fill:#0f375b"/><polygon points="198.43 153.65 196.69 153.79 196.77 154.18 198.51 154.04 198.43 153.65" style="fill:#1f3437"/><polygon points="198.71 155.09 196.97 155.22 196.77 154.18 198.51 154.04 198.71 155.09" style="fill:#f2ebd9"/><polygon points="193.3 136.4 193.82 134.56 195.04 136.26 193.3 136.4" style="fill:#f2ebd9"/><polygon points="194.14 134.93 193.7 133.95 193.66 134.97 194.14 134.93" style="fill:#1f3437"/><polygon points="200.39 132.03 200.21 133.08 200.15 133.47 197.14 150.89 197.58 152.32 197.53 152.31 197.6 153.33 198.01 152.35 197.97 152.34 198.88 151.01 201.89 133.59 201.96 133.2 202.13 132.15 200.39 132.03" style="fill:#1f3437;stroke:#000;stroke-miterlimit:10;stroke-width:0.75px"/><polygon points="200.1 133.6 201.84 133.72 198.84 151.15 197.1 151.03 200.1 133.6" style="fill:#005a36"/><polygon points="201.26 133.68 201.84 133.72 198.84 151.15 198.26 151.11 201.26 133.68" style="fill:#e6e6e6;mix-blend-mode:multiply"/><polygon points="198.84 151.15 197.66 152.86 197.1 151.03 198.84 151.15" style="fill:#f2ebd9"/><polygon points="197.49 152.45 197.56 153.47 197.97 152.48 197.49 152.45" style="fill:#1f3437"/><polygon points="204.64 156.01 194.3 156.01 192.54 144.26 206.4 144.26 204.64 156.01" style="fill:#f2f2f2;stroke:#000;stroke-miterlimit:10;stroke-width:0.25px"/></g></g><g id="Table"><g style="clip-path:url(#clip-path-2)"><rect x="11.33" y="161.51" width="8.19" height="43.05" transform="translate(56.67 4.04) rotate(17.79)" style="fill:#f2f2f2;stroke:#000;stroke-miterlimit:10;stroke-width:0.5px"/><rect x="181.95" y="162.82" width="8.19" height="43.05" transform="translate(419.52 303.02) rotate(162.21)" style="fill:#f2f2f2;stroke:#000;stroke-miterlimit:10;stroke-width:0.5px"/><rect y="155.8" width="200" height="9.3" style="fill:#f2f2f2;stroke:#000;stroke-miterlimit:10;stroke-width:0.5px"/></g></g></g></svg>