<svg xmlns="http://www.w3.org/2000/svg" viewBox="0 0 459.99 150.83"><defs><style>.cls-1{isolation:isolate;}.cls-2{fill:#f1b8ab;}.cls-3{fill:none;stroke:#f1b8ab;stroke-miterlimit:10;stroke-width:4px;}.cls-4{fill:#ccc;}.cls-4,.cls-5,.cls-6{fill-rule:evenodd;}.cls-10,.cls-5,.cls-7{fill:#e6e6e6;}.cls-6{fill:#b3b3b3;}.cls-8{fill:#fff;}.cls-9{fill:#404041;}.cls-10{opacity:0.63;}.cls-11{fill:#4d4e4e;}.cls-12{fill:#f2f2f2;}.cls-13{fill:#dbdcdd;}.cls-14,.cls-19{fill:#333;}.cls-14{stroke:#333;}.cls-14,.cls-15,.cls-16{stroke-linecap:round;stroke-linejoin:round;}.cls-15,.cls-16{stroke:#000;}.cls-15{stroke-width:2px;}.cls-17{fill:#1a1a1a;}.cls-18{fill:#4d4d4d;}.cls-20{opacity:0.06;mix-blend-mode:multiply;}.cls-21{fill:#e8e8e9;}.cls-22{fill:#989898;}</style></defs><title>desk</title><g class="cls-1"><g id="Layer_2" data-name="Layer 2"><g id="Desktop"><path class="cls-2" d="M55.89,97.15H79.35a2,2,0,0,1,2,2V121a0,0,0,0,1,0,0H53.89a0,0,0,0,1,0,0V99.15A2,2,0,0,1,55.89,97.15Z"/><ellipse class="cls-3" cx="84.01" cy="108.92" rx="6.53" ry="6.04"/><path class="cls-4" d="M69.1,95.38c-3.42-6.51,6.87-7-1.16-14.88C71.74,87.72,60.91,89.29,69.1,95.38Z"/><path class="cls-5" d="M73.92,95.26c-2.61-5,5.25-5.37-.89-11.37C75.94,89.41,67.67,90.61,73.92,95.26Z"/><path class="cls-6" d="M63.58,95.38c-4.1-8,8.23-8.61-1.4-18.21C66.75,86,53.76,87.93,63.58,95.38Z"/><circle class="cls-7" cx="389.99" cy="47.64" r="32.77"/><circle class="cls-8" cx="389.99" cy="47.64" r="25.2"/><path class="cls-9" d="M391.49,47.64a1.5,1.5,0,1,1-1.5-1.5A1.5,1.5,0,0,1,391.49,47.64Z"/><rect class="cls-9" x="389.27" y="24.03" width="1.45" height="2.25"/><rect class="cls-9" x="411.75" y="46.51" width="1.45" height="2.25" transform="translate(460.12 -364.85) rotate(90)"/><rect class="cls-9" x="389.27" y="69" width="1.45" height="2.25" transform="translate(779.99 140.25) rotate(180)"/><rect class="cls-9" x="366.78" y="46.51" width="1.45" height="2.25" transform="translate(319.87 415.14) rotate(-90)"/><rect class="cls-9" x="399.8" y="26.64" width="1.45" height="2.25" transform="translate(59.66 -184.38) rotate(27.93)"/><rect class="cls-9" x="409.13" y="57.05" width="1.45" height="2.25" transform="translate(653.24 -276.7) rotate(117.93)"/><rect class="cls-9" x="378.73" y="66.38" width="1.45" height="2.25" transform="translate(683.1 304.89) rotate(-152.07)"/><rect class="cls-9" x="369.4" y="35.98" width="1.45" height="2.25" transform="translate(163.95 346.71) rotate(-62.06)"/><rect class="cls-9" x="409.04" y="35.8" width="1.45" height="2.25" transform="translate(246.95 -340.92) rotate(61.54)"/><rect class="cls-9" x="399.98" y="66.28" width="1.45" height="2.25" transform="translate(785.13 -64.26) rotate(151.54)"/><rect class="cls-9" x="369.5" y="57.23" width="1.45" height="2.25" transform="translate(495.36 411.64) rotate(-118.46)"/><rect class="cls-9" x="378.55" y="26.74" width="1.45" height="2.25" transform="translate(32.55 184.09) rotate(-28.46)"/><rect class="cls-9" x="386.16" y="30.7" width="0.73" height="16.94" transform="translate(12.9 145.65) rotate(-21.69)"/><rect class="cls-9" x="394.84" y="42.34" width="0.91" height="10.59" transform="translate(442.93 -347.66) rotate(90)"/><rect class="cls-10" y="124.83" width="459.99" height="26"/><rect y="120.97" width="459.99" height="26"/><path class="cls-11" d="M334,116h0a.77.77,0,0,1-.76-.76v-2.06a.77.77,0,0,1,.76-.76h0a.76.76,0,0,1,.76.76v2.06A.76.76,0,0,1,334,116Z"/><path class="cls-12" d="M324.59,121s-.07-7.31,9.41-7.31,9.48,7.31,9.48,7.31Z"/><path class="cls-13" d="M334,120c-9.71,0-8.64-2.07-8.63-2.08a7.29,7.29,0,0,0-.82,3.07h18.89a7.31,7.31,0,0,0-.84-3.06C342.7,118,343.42,120,334,120Z"/><rect x="129.67" width="178.74" height="114.15" rx="6.83" ry="6.83"/><rect class="cls-8" x="135.31" y="5.26" width="167.47" height="103.64"/><circle class="cls-8" cx="219.23" cy="3" r="0.75"/><line class="cls-14" x1="140.8" y1="13.76" x2="195.23" y2="13.76"/><line class="cls-15" x1="140.8" y1="18.47" x2="202.44" y2="18.47"/><line class="cls-16" x1="140.8" y1="23.76" x2="177.24" y2="23.76"/><rect class="cls-17" x="140.8" y="29.11" width="68.25" height="54.25" rx="5" ry="5"/><circle class="cls-18" cx="152.11" cy="40.23" r="6.17"/><rect class="cls-19" x="146.61" y="56.24" width="53.88" height="6.19" rx="3.1" ry="3.1"/><rect class="cls-19" x="146.61" y="66.71" width="53.88" height="6.19" rx="3" ry="3"/><rect class="cls-17" x="230.4" y="13.76" width="65.76" height="79.48" rx="5" ry="5"/><path class="cls-20" d="M301.71,114.15a6.71,6.71,0,0,0,6.7-6.7V6.7a6.71,6.71,0,0,0-6.7-6.7H210.39A1.56,1.56,0,0,0,209,2.21l49.89,111a1.56,1.56,0,0,0,1.43.92Z"/><path class="cls-12" d="M220,114.15h-99.8v3.41a1.7,1.7,0,0,0,1.71,1.7H318.08a1.7,1.7,0,0,0,1.7-1.7v-3.41Z"/><polygon class="cls-13" points="219.85 119.27 121.89 119.27 123.59 120.97 219.85 120.97 316.12 120.97 317.82 119.27 219.85 119.27"/><path class="cls-21" d="M219,114.15H183.79s.43,3.41,2.84,3.41h64.83c2.41,0,2.84-3.41,2.84-3.41Z"/><path class="cls-22" d="M244.53,116.28h-51a.42.42,0,0,1-.43-.42h0a.43.43,0,0,1,.43-.43h51a.43.43,0,0,1,.43.43h0A.43.43,0,0,1,244.53,116.28Z"/></g></g></g></svg>