<svg xmlns="http://www.w3.org/2000/svg" viewBox="0 0 14.28 14.01"><title>paw_1</title><g id="Layer_2" data-name="Layer 2"><g id="Paw_2" data-name="Paw 2"><path d="M14,8.11c1.09,3.9-1.55,4.19-4.66,5.05s-5.52,2-6.61-1.91A6.36,6.36,0,0,1,4.3,5.77,4.82,4.82,0,0,1,9.88,4.22,6.31,6.31,0,0,1,14,8.11Z"/><path d="M12.62,8.68c.67,2.44-1.24,2.69-3.51,3.32s-4,1.41-4.72-1A4.43,4.43,0,0,1,7.27,5.41,4.44,4.44,0,0,1,12.62,8.68Z"/><path d="M1.83,6.05A1.68,1.68,0,0,1,.64,5.51,2.14,2.14,0,0,1,.32,3.72l0-.16.16,0a3.17,3.17,0,0,1,.64-.07,1.54,1.54,0,0,1,1.15.39,1.84,1.84,0,0,1,.53,1,1.08,1.08,0,0,1-.27.95A1,1,0,0,1,1.83,6.05Z"/><path d="M1.15,3.71a1.37,1.37,0,0,1,1,.32,1.15,1.15,0,0,1,.25,1.56.77.77,0,0,1-.55.21,1.49,1.49,0,0,1-1-.46C.31,4.84.56,3.77.56,3.77a3,3,0,0,1,.59-.06m0-.5h0a3,3,0,0,0-.7.08l-.3.07-.07.3a2.33,2.33,0,0,0,.38,2,2,2,0,0,0,1.37.61,1.22,1.22,0,0,0,.9-.36,1.28,1.28,0,0,0,.34-1.16,2,2,0,0,0-.59-1.11,1.83,1.83,0,0,0-1.33-.46Z"/><path d="M11.05,3.3a.87.87,0,0,1-.28,0,1.36,1.36,0,0,1-.66-1.81C10.36.63,11.5.33,11.55.32l.15,0,.1.12a2.15,2.15,0,0,1,.55,1.74,1.51,1.51,0,0,1-1.3,1.16Z"/><path d="M11.61.56s.72.83.5,1.51a1.27,1.27,0,0,1-1.06,1,.76.76,0,0,1-.21,0,1.16,1.16,0,0,1-.49-1.51c.21-.68,1.26-.95,1.26-.95M11.79,0l-.3.08A2.34,2.34,0,0,0,9.87,1.36a2,2,0,0,0,0,1.26,1.31,1.31,0,0,0,.83.87,1.13,1.13,0,0,0,.36.06,1.76,1.76,0,0,0,1.54-1.33,2.32,2.32,0,0,0-.6-2L11.79,0Z"/><path d="M6,3.29a1.52,1.52,0,0,1-1.31-1.1A2.15,2.15,0,0,1,5.19.43L5.28.3l.16,0s1.2.26,1.49,1a1.37,1.37,0,0,1-.58,1.84A.87.87,0,0,1,6,3.29Z"/><path d="M5.38.58S6.45.8,6.7,1.47A1.16,1.16,0,0,1,6.27,3,1,1,0,0,1,6,3,1.3,1.3,0,0,1,5,2.11c-.24-.67.43-1.53.43-1.53M5.18,0,5,.27a2.41,2.41,0,0,0-.51,2A1.78,1.78,0,0,0,6,3.54a1.41,1.41,0,0,0,.41-.07,1.32,1.32,0,0,0,.79-.92A2.07,2.07,0,0,0,7.17,1.3C6.84.4,5.62.12,5.49.09L5.18,0Z"/></g></g></svg>