<svg xmlns="http://www.w3.org/2000/svg" viewBox="0 0 28 28"><defs><style>.cls-1{fill:#fff;}</style></defs><title>instagram_2</title><g id="Layer_2" data-name="Layer 2"><g id="Social"><path class="cls-1" d="M28,28H0V6A6,6,0,0,1,6,0H22a6,6,0,0,1,6,6Z"/><path d="M14.06,10A4,4,0,0,1,18,13.94v.12A4,4,0,0,1,14.06,18h-.12A4,4,0,0,1,10,14.06v-.12A4,4,0,0,1,13.94,10h.12m0-3h-.12A6.94,6.94,0,0,0,7,13.94v.12A6.94,6.94,0,0,0,13.94,21h.12A6.94,6.94,0,0,0,21,14.06v-.12A6.94,6.94,0,0,0,14.06,7Z"/><circle cx="21.5" cy="4.5" r="1.5"/></g></g></svg>