<svg xmlns="http://www.w3.org/2000/svg" xmlns:xlink="http://www.w3.org/1999/xlink" viewBox="0 0 200 200"><defs><clipPath id="clip-path"><polygon points="183.17 70.11 186.73 65.9 190.6 69.18 187.04 73.39 185.94 71.64 185.22 71.84 185.59 71.27 184.83 71.39 184.97 70.67 183.17 70.11" style="fill:none"/></clipPath></defs><title>logo</title><g id="Layer_2" data-name="Layer 2"><path d="M80.82,181.42c1.39,21.72,24.32,13.52,29.63-1.09,1.54-4.26,7.86-21.85,8.48-28.75-11.54,5.8-39.21,19.47-39.21,19.47s.53,5.61,1.1,10.37" style="fill:#2b2b2b;stroke:#000;stroke-miterlimit:4.552460014820099;stroke-width:2px"/><path d="M58.1,194.45C39.78,191.93,40,171.72,36,156.59c-.22-1,1.57.49,1.57.49,5.76,9.83,36.52,19.5,36.52,19.5-1.55,6.26-4.8,20.07-16,17.87" style="fill:#2b2b2b;stroke:#000;stroke-miterlimit:4.552460014820099;stroke-width:2px"/><path d="M46.45,149.58c-3.79-21.41,3.77-41.79,3.77-41.79-13.33,3-40.26,44.8-24.2,50.66,9.88,4,13.87-1.92,20.43-8.87Z" style="fill:#262626;stroke:#000;stroke-miterlimit:4.552460014820099;stroke-width:2px"/><path d="M112.87,123.07c-19.47-9.68-5.14-19-5.14-19,16.66-7.94,50.12-19.9,51.21-2.84,1,10.59-5.8,12-14.8,15.18C137,119,112.87,123.07,112.87,123.07Z" style="fill:#262626;stroke:#000;stroke-miterlimit:4.552460014820099;stroke-width:2px"/><path d="M76.15,96.13c30.41-1,43.2,34.14,43.48,52.46-.85,13.54-22.91,26.29-38,27.9-18,.95-42.78-6.51-47-24C34.37,134.2,48,97.09,76.15,96.13" style="fill:#fff;stroke:#000;stroke-miterlimit:4.552460014820099;stroke-width:2px"/><path d="M115.14,128.08c-41.21-19.84-71.17,1.31-74.51-1.4,2.61-5.8,8.31-14.48,11.12-20.32,0,0,40.61-9.81,49.54-1.22,5.48,5.28,10.83,13.78,13.85,22.94" style="fill:#262626"/><path d="M115.14,128.08c-41.21-19.84-71.17,1.31-74.51-1.4,2.42-5.86,4.16-8.67,11.12-20.32" style="fill:#262626"/><path d="M13.69,37.55C-1.46,18.86,31.91-3.36,46,13.73,61.1,32.41,27.73,54.64,13.69,37.55" style="fill:#262626;stroke:#000;stroke-miterlimit:10;stroke-width:2px"/><path d="M141,36c13.19-20-22-39.19-34.36-20.74-13.18,20,22,39.19,34.36,20.74" style="fill:#262626;stroke:#000;stroke-miterlimit:10;stroke-width:2px"/><path d="M74.45,13.21C34.53,14.47,7.88,39.13,9.47,89c1.62,23.41,52.83,24.24,68.14,23.76s66.6-4.56,66.74-28c-1.59-49.86-30-72.78-69.9-71.52" style="fill:#fff;stroke:#000;stroke-miterlimit:10;stroke-width:2px"/><path d="M86.16,83.85c.18,5.51-9.29,7.51-9.23.53.23,7-8.72,5.49-8.9,0" style="fill:none;stroke:#262626;stroke-linecap:round;stroke-linejoin:round;stroke-width:2px"/><path d="M78.89,79.82a.93.93,0,0,1,.93,1.41l-2,2.74c-.53,1-1.28,1-1.78,0l-2.08-2.74c-.36-.73.08-1.37,1-1.42Z" style="fill:#262626"/><path d="M113.15,77c-9.12,3.16-13.91-11.38-4.7-14.27,9.12-3.17,13.91,11.38,4.7,14.27m22-10.19C119.12,38.48,81.31,43,95,80.13,103.73,109,154.6,99.49,135.2,66.82" style="fill:#262626"/><path d="M35.76,67.58c2.92-9.3,17.31-4.54,14.12,4.67-2.92,9.3-17.31,4.54-14.12-4.67M24.4,95.74C58.6,107.85,73,56.92,51.52,49.21c-20.2-9-54.61,34.84-27.12,46.53" style="fill:#262626"/><path d="M57.25,20.09c4.44-5.92-8-11.42-5.71-12.27,9.73-3.17,20.09,8.89,20.09,8.89a30.65,30.65,0,0,0-5.92-11C72.48,4.86,82.21,15,82.21,15s2.75-2.33-.42-9.74c11.44.64,11.44,12.94,11.44,12.94" style="fill:#fff;stroke:#000;stroke-linecap:round;stroke-miterlimit:10;stroke-width:2px;fill-rule:evenodd"/><g id="Bow"><path d="M122.57,27c-2.56,3.86-14.83-.57-18.83-3.28-9.7-6-.17-20.48,9.13-13.84h0c4,2.71,12.27,13.27,9.7,17.12" style="fill:#fe1b3f;stroke:#000;stroke-linejoin:round;stroke-width:2px"/><path d="M122,26.54c-2.56,3.85,6.28,13.41,10.42,16,9.14,6.63,18.91-7.8,9.27-13.84h-.14c-4.14-2.57-17-5.85-19.55-2.14" style="fill:#fe1b3f;stroke:#000;stroke-linejoin:round;stroke-width:2px"/><path d="M129.42,30.39c-5.48,8.73-19.1-.19-13.27-8.71,5.48-8.73,19.1.19,13.27,8.71h0" style="fill:#fe1b3f;stroke:#000;stroke-linejoin:round;stroke-width:2px"/></g></g><g id="Layer_1" data-name="Layer 1"><g id="Paintbrush"><path d="M180.28,72.07c1.42-1.5,10.1-3.69,8.68-2.72-3.16,2.16-2.74,5.48-4.15,7a4.07,4.07,0,0,1-2.7,1.31l-3-2.8A4.05,4.05,0,0,1,180.28,72.07Z" style="fill:#c7b299;stroke:#1f252e;stroke-miterlimit:10;stroke-width:0.5px"/><path d="M142.46,111.64a3.9,3.9,0,0,0,1,4.43,3.8,3.8,0,0,0,5,.37c5.76-4.16,32.73-37.8,32.06-38.43l-1.86-1.74C178,75.62,144.18,106.51,142.46,111.64Z" style="fill:#702ab3;stroke:#1f252e;stroke-miterlimit:10;stroke-width:0.5px"/><rect x="177.7" y="75.92" width="4.57" height="2.01" rx="0.56" transform="translate(258.37 256.28) rotate(-136.75)" style="fill:#181c22"/><g style="clip-path:url(#clip-path)"><path d="M180.28,72.07c1.42-1.5,10.1-3.69,8.68-2.72-3.16,2.16-2.74,5.48-4.15,7a4.07,4.07,0,0,1-2.7,1.31l-3-2.8A4.05,4.05,0,0,1,180.28,72.07Z" style="fill:#fcee21;stroke:#000;stroke-miterlimit:10;stroke-width:0.5px"/></g></g></g></svg>