<svg xmlns="http://www.w3.org/2000/svg" viewBox="0 0 94.04 30.02"><defs><style>.cls-1{fill:#f2f2f2;}.cls-2{font-size:12px;fill:#fff;font-family:HappyMonkey-Regular, Happy Monkey;}</style></defs><title>add-cart</title><g id="Layer_1" data-name="Layer 1"><rect x="1.58" y="1.92" width="91" height="26" rx="12.5" ry="12.5"/><path class="cls-1" d="M80.08,2.42a12,12,0,0,1,12,12v1a12,12,0,0,1-12,12h-66a12,12,0,0,1-12-12v-1a12,12,0,0,1,12-12h66m0-1h-66a13,13,0,0,0-13,13v1a13,13,0,0,0,13,13h66a13,13,0,0,0,13-13v-1a13,13,0,0,0-13-13Z"/></g><g id="Layer_2" data-name="Layer 2"><text class="cls-2" transform="translate(12.8 18.49)">Add to Cart</text></g></svg>