<svg xmlns="http://www.w3.org/2000/svg" xmlns:xlink="http://www.w3.org/1999/xlink" viewBox="0 0 300 174"><defs><style>.cls-1,.cls-12{fill:none;}.cls-2{opacity:0.22;}.cls-3{fill:#4d4d4d;}.cls-4{fill:#999;}.cls-5,.cls-7{fill:#fff;}.cls-6{clip-path:url(#clip-path);}.cls-12,.cls-7,.cls-8{stroke:#2d3436;stroke-linecap:round;}.cls-7,.cls-8{stroke-miterlimit:10;stroke-width:15px;}.cls-8,.cls-9{fill:#2d3436;}.cls-10{fill:#ffd1dc;}.cls-11{fill:#202020;}.cls-12{stroke-linejoin:round;stroke-width:1.5px;}.cls-13{font-size:12.6px;font-family:bubbleboddy-Fat, bubbleboddy;}</style><clipPath id="clip-path"><rect class="cls-1" x="41.59" y="25.56" width="198.43" height="117.06" transform="translate(-6.69 12.38) rotate(-4.92)"/></clipPath></defs><title>business-card</title><g id="Layer_2" data-name="Layer 2"><g id="Business_Cards" data-name="Business Cards"><rect width="300" height="174"/><g class="cls-2"><polygon class="cls-3" points="0 174 0 0 300 0 0 174"/></g><rect class="cls-4" x="43.29" y="26.99" width="198.43" height="117.06" transform="translate(-6.8 12.53) rotate(-4.92)"/><rect class="cls-5" x="41.59" y="25.56" width="198.43" height="117.06" transform="translate(-6.69 12.38) rotate(-4.92)"/><g class="cls-6"><path class="cls-7" d="M196.9,143.28,95.44,152S90,119.45,142.88,115.52C200.51,111.24,196.9,143.28,196.9,143.28Z"/><path class="cls-8" d="M192.35,135.26c1,11.13-92.66,19.18-93.61,8.05s19.22-22,45.07-24.18S191.4,124.13,192.35,135.26Z"/><ellipse class="cls-5" cx="145.59" cy="139.79" rx="34.38" ry="19.16" transform="translate(-11.44 12.99) rotate(-4.92)"/></g><ellipse class="cls-9" cx="103.43" cy="58.64" rx="14.63" ry="12.66" transform="translate(-15.29 52.18) rotate(-26.43)"/><ellipse class="cls-9" cx="175.05" cy="52.48" rx="12.67" ry="14.61" transform="translate(75.8 205.93) rotate(-73.79)"/><ellipse class="cls-10" cx="101.87" cy="57.33" rx="10.42" ry="8.2" transform="translate(-15.02 57.9) rotate(-29.65)"/><ellipse class="cls-10" cx="174.93" cy="51.05" rx="7.75" ry="9.42" transform="translate(23.22 152) rotate(-49.91)"/><path class="cls-11" d="M144.18,122.84c-3.61.3-8.68.57-14.76.49-3,0-6.34-.19-9.81-.51a79.54,79.54,0,0,1-10.85-1.71,36.65,36.65,0,0,1-10.87-4.19,16.34,16.34,0,0,1-4.41-3.86,11.48,11.48,0,0,1-2.26-5.32,84,84,0,0,1,1.16-25.37,55,55,0,0,1,3.88-11.7,45.44,45.44,0,0,1,6.26-9.82,44.13,44.13,0,0,1,16.11-12,62.36,62.36,0,0,1,13.42-4.1l2.21-.41,1.63-.27c.89-.16,1.35-.27,1.35-.35a4,4,0,0,0-1.39,0c-.91,0-2.23.14-3.93.34a55.19,55.19,0,0,0-13.81,3.66,44.31,44.31,0,0,0-16.88,12.06,46.49,46.49,0,0,0-6.62,10.13A55.86,55.86,0,0,0,90.5,82a73.9,73.9,0,0,0-1.67,13,92.52,92.52,0,0,0,.35,13.1,13.5,13.5,0,0,0,2.64,6.3,18.18,18.18,0,0,0,5,4.37,38.38,38.38,0,0,0,11.5,4.48,81.86,81.86,0,0,0,11.14,1.75c3.54.33,6.89.46,10,.5,6.17.07,11.3-.22,15-.55a148.2,148.2,0,0,0,14.83-2c3-.56,6.31-1.28,9.75-2.21A81.17,81.17,0,0,0,179.61,117a38.52,38.52,0,0,0,10.55-6.4,18.38,18.38,0,0,0,4.11-5.18,13.31,13.31,0,0,0,1.48-6.68,84.43,84.43,0,0,0-5.82-25.42,55.58,55.58,0,0,0-6.16-11.16,46.9,46.9,0,0,0-8.29-8.82,44.81,44.81,0,0,0-18.72-8.95,55.87,55.87,0,0,0-14.24-1.23c-1.7.09-3,.2-3.92.33a4,4,0,0,0-1.36.28c0,.08.48.11,1.38.12l1.65,0,2.25,0a62.87,62.87,0,0,1,13.93,1.74,44.54,44.54,0,0,1,18,9,45.29,45.29,0,0,1,7.87,8.57A53.76,53.76,0,0,1,188.14,74a83.45,83.45,0,0,1,5.54,24.79,11.14,11.14,0,0,1-1.27,5.63,16,16,0,0,1-3.66,4.57,36.51,36.51,0,0,1-10,6,78.42,78.42,0,0,1-10.4,3.54c-3.37.92-6.59,1.63-9.57,2.19C152.83,121.9,147.78,122.51,144.18,122.84Z"/><path class="cls-5" d="M137.24,43.77c-31,2.66-50.56,23.64-47.11,63.76,2.3,18.8,42.12,17.36,54,16.34s51.53-6.42,50.6-25.34C191.28,58.41,168.2,41.11,137.24,43.77Z"/><path class="cls-9" d="M137.24,43.77A62.16,62.16,0,0,0,119,48.12a43.7,43.7,0,0,0-25,26.56,59.77,59.77,0,0,0-2.42,9A76.73,76.73,0,0,0,90.42,93a91.71,91.71,0,0,0,0,9.38c0,1.57.21,3.12.32,4.67A12,12,0,0,0,92,111.36a13.84,13.84,0,0,0,1.18,1.89,14.79,14.79,0,0,0,1.53,1.64,19.36,19.36,0,0,0,3.66,2.66,38,38,0,0,0,8.58,3.32,86.16,86.16,0,0,0,18.48,2.47,150.23,150.23,0,0,0,18.74-.48,152.66,152.66,0,0,0,18.54-2.76,85.92,85.92,0,0,0,17.78-5.61,37.66,37.66,0,0,0,7.88-4.76,15.39,15.39,0,0,0,5.17-7.22,12.34,12.34,0,0,0,.47-2.17c0-.37,0-.74,0-1.11a6.25,6.25,0,0,0,0-1.14c-.16-1.55-.26-3.11-.49-4.66a90,90,0,0,0-1.62-9.23,65,65,0,0,0-6.66-17.47A43.87,43.87,0,0,0,156,44.93,62.52,62.52,0,0,0,137.24,43.77Zm0,0a62.39,62.39,0,0,1,18.79,1,45.57,45.57,0,0,1,17.17,7.63,46.26,46.26,0,0,1,12.61,14A65.3,65.3,0,0,1,192.9,84a89.54,89.54,0,0,1,1.83,9.31c.26,1.56.4,3.15.59,4.73a7,7,0,0,1,.05,1.22c0,.41,0,.83,0,1.24a12.67,12.67,0,0,1-.47,2.44,16.84,16.84,0,0,1-5.48,8,37.48,37.48,0,0,1-8.16,5.11,87.46,87.46,0,0,1-18.11,5.87,152.45,152.45,0,0,1-18.76,2.94,152.38,152.38,0,0,1-19,.34,87.25,87.25,0,0,1-18.85-2.67,37.08,37.08,0,0,1-8.92-3.63,20.55,20.55,0,0,1-3.89-3,18,18,0,0,1-1.65-1.84A14.78,14.78,0,0,1,90.79,112a13,13,0,0,1-1.32-4.75c-.08-1.59-.22-3.17-.24-4.75A93.87,93.87,0,0,1,89.42,93a80.61,80.61,0,0,1,1.29-9.41,60.07,60.07,0,0,1,2.64-9.11,46.44,46.44,0,0,1,10-16A45.35,45.35,0,0,1,118.9,48,62.2,62.2,0,0,1,137.24,43.77Z"/><path class="cls-12" d="M135.65,106.26c.39,4.6,7.32,4,6.82-1.85"/><path class="cls-12" d="M149.74,105.06c.39,4.6-6.77,5.17-7.27-.65"/><path class="cls-9" d="M140,100.23l4.39-.37c1.28-.11,2.21,1.65,1.22,2.36l-2.26,1.63a1.62,1.62,0,0,1-1.91.16l-2.25-1.25C138.15,102.17,138.73,100.34,140,100.23Z"/><path class="cls-9" d="M124.06,99.49c1,9.62-7.09,16.08-15.53,16.81-7.12.61-11.35-6.46-10.26-14.63,1.25-9.38,7.25-17.08,14.37-17.69S123.06,90.08,124.06,99.49Z"/><circle class="cls-5" cx="112.71" cy="97.56" r="4.54"/><path class="cls-9" d="M159.4,96.21c.64,9.66,9.73,14.64,18.17,13.92,7.12-.62,10.08-8.31,7.61-16.17-2.83-9-10.06-15.6-17.18-15S158.78,86.77,159.4,96.21Z"/><circle class="cls-5" cx="170.26" cy="92.38" r="4.54"/><text class="cls-13" transform="translate(63.65 70.96) rotate(-28.41)">Hi!</text></g></g></svg>