<?xml version="1.0" encoding="utf-8"?>
<!-- Generator: Adobe Illustrator 22.0.0, SVG Export Plug-In . SVG Version: 6.00 Build 0)  -->
<svg version="1.1" id="Layer_1" xmlns="http://www.w3.org/2000/svg" xmlns:xlink="http://www.w3.org/1999/xlink" x="0px" y="0px"
	 viewBox="0 0 460 370.1" style="enable-background:new 0 0 460 370.1;" xml:space="preserve">
<style type="text/css">
	.st0{fill:#212121;}
	.st1{fill:#E2E2E2;}
	.st2{fill:url(#SVGID_1_);}
	.st3{fill:#F2F2F2;}
	.st4{fill:#BFBFBF;}
	.st5{fill:#A6A6A6;}
	.st6{fill:#2E3436;}
	.st7{fill:#F9CED9;}
	.st8{fill:#202020;}
	.st9{fill:#FFFFFF;stroke:#000000;stroke-width:2;stroke-miterlimit:10;}
	.st10{fill:none;stroke:#2E3436;stroke-width:2;stroke-linecap:round;stroke-linejoin:round;}
	.st11{fill:#FFFFFF;}
</style>
<title>graphic</title>
<g>
	<g id="Layer_2_1_">
		<g id="Graphic_Design">
			<rect y="0.1" class="st0" width="460" height="370"/>
			
				<image style="overflow:visible;opacity:0.55;enable-background:new    ;" width="338" height="408" xlink:href="9A6FC34B8FE91A36.png"  transform="matrix(1 0 0 1 78.36 -6.4053)">
			</image>
			<path id="spine" class="st1" d="M137.1,330.8c0,0-3.7-0.1-6.6-0.4c-1.3-0.2-2.6-0.6-3.7-1.2v-284c1.1-0.2,2.1-0.4,3.2-0.5
				c2.9-0.2,7.1-0.3,7.1-0.3V330.8z"/>
			
				<linearGradient id="SVGID_1_" gradientUnits="userSpaceOnUse" x1="137.14" y1="222.5253" x2="343.54" y2="222.5253" gradientTransform="matrix(1 0 0 -1 0 410)">
				<stop  offset="0" style="stop-color:#FFFFFF"/>
				<stop  offset="0.51" style="stop-color:#F2F2F2"/>
				<stop  offset="1" style="stop-color:#EEEEEE"/>
			</linearGradient>
			<rect x="137.1" y="44.4" class="st2" width="206.4" height="286.1"/>
			<rect id="spine_shadow" x="137.1" y="44.4" class="st3" width="0.9" height="286.4"/>
			<rect id="spine_shadow-2" x="136.3" y="44.4" class="st4" width="0.9" height="286.4"/>
			<polygon id="top_border" class="st3" points="138.2,45 239.8,45 341.6,45 342.7,44.4 239.8,44.4 137.1,44.4 			"/>
			<polygon id="bottom_borer" class="st5" points="138.2,330.3 239.8,330.3 341.6,330.3 342.7,330.8 239.8,330.8 137.1,330.8 			"/>
			
				<ellipse transform="matrix(0.9303 -0.3668 0.3668 0.9303 -41.1081 77.7262)" class="st6" cx="183.9" cy="147" rx="21.4" ry="18.5"/>
			
				<ellipse transform="matrix(0.3603 -0.9328 0.9328 0.3603 47.7315 363.6321)" class="st6" cx="289" cy="147" rx="18.5" ry="21.4"/>
			
				<ellipse transform="matrix(0.9083 -0.4183 0.4183 0.9083 -43.953 89.3674)" class="st7" cx="181.9" cy="144.9" rx="15.2" ry="12"/>
			
				<ellipse transform="matrix(0.7072 -0.707 0.707 0.7072 -17.8588 246.7696)" class="st7" cx="289" cy="144.9" rx="11.3" ry="13.8"/>
			<path class="st8" d="M235.2,246.1c-5.3,0-12.7-0.2-21.6-1.1c-4.4-0.4-9.2-1.1-14.3-2c-5.3-0.9-10.5-2.2-15.6-3.9
				c-5.5-1.7-10.7-4.2-15.5-7.5c-2.4-1.7-4.4-3.9-6-6.3c-1.6-2.5-2.5-5.3-2.7-8.3c-0.1-12.3,1.3-25.2,4.9-36.9
				c1.8-5.8,4.2-11.4,7.2-16.6c2.9-5,6.4-9.5,10.4-13.6c7.1-7,15.7-12.3,25.1-15.4c6.5-2.2,13.3-3.6,20.1-4.2l3.3-0.3l2.4-0.1
				c0.7,0,1.3-0.1,2-0.2c-0.7-0.1-1.3-0.2-2-0.1c-0.7,0-1.5,0-2.4,0l-3.3,0.1c-7,0.4-13.9,1.6-20.5,3.7c-9.7,3-18.6,8.3-25.9,15.4
				c-4.2,4.1-7.8,8.8-10.8,13.9c-3.1,5.4-5.6,11.1-7.4,17c-1.9,6.1-3.2,12.3-4,18.6c-0.8,6.3-1.2,12.6-1.1,19c0.2,3.3,1.2,6.5,3,9.3
				c1.8,2.7,4,5,6.6,6.9c4.9,3.5,10.3,6.1,16.1,7.9c5.2,1.7,10.5,3,15.8,3.9c5.1,0.9,9.9,1.5,14.4,2c9,0.9,16.4,1.1,21.8,1.1
				s12.9-0.2,21.8-1.1c4.5-0.4,9.3-1.1,14.4-2c5.4-0.9,10.7-2.3,15.9-3.9c5.7-1.8,11.1-4.4,16-7.9c2.6-1.9,4.8-4.2,6.5-6.9
				c1.8-2.8,2.8-6,2.9-9.3c0-6.4-0.3-12.7-1.2-19c-0.8-6.3-2.2-12.5-4.1-18.6c-1.8-5.9-4.4-11.6-7.5-16.9c-3-5.1-6.6-9.7-10.8-13.9
				c-7.3-7.1-16.2-12.3-26-15.4c-6.7-2.1-13.5-3.3-20.5-3.7l-3.3-0.1c-1,0-1.8,0-2.4,0c-0.7,0-1.3,0-2,0.1c0.7,0.2,1.3,0.2,2,0.2
				l2.4,0.1l3.3,0.3c6.9,0.6,13.6,2,20.2,4.2c9.5,3.1,18.1,8.4,25.2,15.3c4.1,4,7.6,8.6,10.5,13.5c3,5.2,5.5,10.8,7.2,16.6
				c3.7,11.8,5.1,24.6,5,36.9c-0.1,2.9-1,5.8-2.6,8.3c-1.6,2.5-3.6,4.6-6,6.3c-4.7,3.3-9.9,5.9-15.4,7.6c-5.1,1.7-10.3,3-15.6,3.9
				c-5,0.9-9.8,1.6-14.3,2C248,245.8,240.6,246.1,235.2,246.1z"/>
			<path class="st9" d="M235,129.6c-45.4,0-76.6,28.1-76.6,87c1,27.7,59.2,30.6,76.6,30.6s75.9-2.9,76.9-30.6
				C311.9,157.7,280.5,129.6,235,129.6z"/>
			<path class="st10" d="M224.9,220.4c0,6.8,10.2,6.7,10.2-1.8"/>
			<path class="st10" d="M245.6,220.4c0,6.8-10.5,6.7-10.5-1.9"/>
			<path class="st6" d="M232,212.2h6.4c1.9,0,3,2.7,1.5,3.6l-3.5,2.1c-0.8,0.6-2,0.6-2.8,0l-3.1-2.1
				C229.1,214.8,230.1,212.2,232,212.2z"/>
			<path class="st6" d="M208.9,209.1c0.3,14.1-12.3,22.5-24.7,22.5c-10.4,0-15.7-10.8-13.1-22.6c3-13.5,12.7-24,23.1-24
				S208.6,195.3,208.9,209.1z"/>
			<circle class="st11" cx="192.6" cy="204.9" r="6.6"/>
			<path class="st6" d="M260.8,208.8c-0.3,14.1,12.3,22.5,24.7,22.5c10.5,0,15.7-10.8,13.1-22.6c-3-13.5-12.7-24-23.1-24
				S261,194.9,260.8,208.8z"/>
			<circle class="st11" cx="277" cy="204.5" r="6.6"/>
		</g>
	</g>
</g>
</svg>
