<svg xmlns="http://www.w3.org/2000/svg" viewBox="0 0 37.51 28.96"><defs><style>.cls-1{fill:#fff;}.cls-2,.cls-3{fill:none;stroke:#000;}.cls-2{stroke-miterlimit:10;}.cls-3{stroke-linecap:round;stroke-linejoin:round;stroke-width:0.5px;}</style></defs><title>logo_2</title><g id="Layer_2" data-name="Layer 2"><g id="Logo"><ellipse cx="6.57" cy="4.65" rx="5.09" ry="4.4" transform="translate(-1.25 2.73) rotate(-21.52)"/><ellipse cx="31.57" cy="4.65" rx="4.41" ry="5.08" transform="translate(15.86 32.42) rotate(-68.88)"/><path class="cls-1" d="M18.72.5C7.92.5.5,7.18.5,21.19c.24,6.58,14.08,7.27,18.22,7.27S36.77,27.77,37,21.19C37,7.18,29.53.5,18.72.5Z"/><path class="cls-2" d="M18.72.5C7.92.5.5,7.18.5,21.19c.24,6.58,14.08,7.27,18.22,7.27S36.77,27.77,37,21.19C37,7.18,29.53.5,18.72.5Z"/><path class="cls-3" d="M16.31,22.1c0,1.61,2.42,1.6,2.42-.43"/><path class="cls-3" d="M21.23,22.11c0,1.61-2.5,1.59-2.5-.44"/><path d="M18,20.15h1.53c.45,0,.72.64.36.85l-.84.5a.55.55,0,0,1-.66,0l-.74-.5C17.3,20.76,17.56,20.14,18,20.15Z"/><path d="M12.5,19.41c.06,3.37-2.94,5.37-5.88,5.37-2.49,0-3.74-2.58-3.12-5.38.71-3.21,3-5.7,5.5-5.7S12.43,16.12,12.5,19.41Z"/><circle class="cls-1" cx="8.62" cy="18.41" r="1.58"/><path d="M24.84,19.33c-.07,3.37,2.93,5.36,5.88,5.36,2.48,0,3.74-2.57,3.12-5.37-.71-3.21-3-5.7-5.51-5.7S24.91,16,24.84,19.33Z"/><circle class="cls-1" cx="28.72" cy="18.33" r="1.58"/></g></g></svg>