<svg xmlns="http://www.w3.org/2000/svg" viewBox="0 0 183.52 300"><defs><style>.cls-1,.cls-4{fill:#1a1a1a;}.cls-12,.cls-2{fill:#fff;}.cls-11,.cls-2,.cls-4{stroke:#000;}.cls-2,.cls-4{stroke-miterlimit:10;}.cls-2{stroke-width:4px;}.cls-3{fill:#e6e6e6;}.cls-5{opacity:0.5;}.cls-6{fill:#fb4f93;}.cls-7{fill:#f2f2f2;}.cls-11,.cls-8,.cls-9{fill:none;stroke-linecap:round;stroke-linejoin:round;}.cls-8{stroke:#e6e6e6;stroke-width:0.25px;}.cls-9{stroke:#f2f2f2;stroke-width:6px;opacity:0.11;}.cls-10{fill:gray;opacity:0.06;}.cls-11{stroke-width:0.5px;}</style></defs><title>panda</title><g id="Layer_2" data-name="Layer 2"><g id="Layer_13" data-name="Layer 13"><path class="cls-1" d="M81.49,273.62c-2.3,13.28-5.31,23.86-17.18,24s-18.4-14-25.46-25.71c-4.2-6.93-15.74-46.41-15.74-46.41,20.43,31.32,60.65,37.21,60.65,37.21S83.2,263.67,81.49,273.62Z"/><path class="cls-1" d="M99.21,276.13c1.47,13.38,6.1,23.69,18,23.52S139.57,288,144,275.51c2.27-6.36,14.5-48.46,14.5-48.46-11,19.18-60.74,39-60.74,39S98.28,267.78,99.21,276.13Z"/><path d="M142.77,269.64c-4.67,12.43-15.1,21.47-27,21.47s-14-8.52-16.36-21.74c-.25-1.42-2.28-7.65-2.28-7.65s.77,6.08,1.55,14.44c1.26,13.4,4.93,23.84,16.8,23.84s22.55-9.2,28.52-24.49c2.46-6.3,14.05-47.49,14.05-47.49C157.16,229.56,144.35,265.44,142.77,269.64Z"/><path d="M82.17,263c-8.82,10.6-7.62,24.81-19.48,24.81s-18.16-14.32-25-26.08c-2.37-4.06-8.76-19-12.26-30.89a32.47,32.47,0,0,0-3-6.36s11.19,39.65,15.28,46.64c6.87,11.76,14.78,26.5,26.65,26.5s14.66-10.79,17.18-24c1.88-9.92,2.77-11.36,2.77-11.36A3.7,3.7,0,0,0,82.17,263Z"/><path class="cls-2" d="M160.45,214.16c.27,16-18.47,31.58-35.49,39.26-6.76,3.05-16.74,8.66-25.37,10.56,0,0-1.34-11.72-7.63-11.72-7.24,0-10.29,11.34-10.29,11.34A84.37,84.37,0,0,1,48.1,251.06c-10.74-6.68-24-18-24.17-30.35-.55-32.86,47.28-120.11,66.18-120.39C118.62,99.9,159.9,181.3,160.45,214.16Z"/><path class="cls-3" d="M106.06,110c-1.52-3.46-12.55-8.68-17-7.52-19.92,5-57.39,78.29-64,114.4-2.87,15.72,18.46,32.3,35.61,39.73,6.74,2.92,10.94,2.88,19.54,4.7-3.62-1.65-15.45-8.59-17.75-10.57-14.36-12.35-22-12.32-22-28.28C40.48,191.88,65.48,121.09,106.06,110Z"/><path class="cls-3" d="M61.64,152.07S70,130.42,77.13,128c7.55-2.61,42.51-4.39,46.1.91,5.24,7.75,6.86,9.82,8.88,13.55-2.33-2.54-10.47-4.78-13.58-5.3-5.92-1-13.67.17-19.93.53C85.86,138.37,74.09,137,61.64,152.07Z"/><path class="cls-3" d="M124.07,247.22c-6.76,3.05-13.56,6.26-22.19,8.16,0,0-4.46-9.46-10.81-9.33-6.7.15-15.08,8.88-15.08,8.88-14.11-3.69-16.17-7.56-26-13.7s-24.15-12.32-24.57-23.68c0,.61,0,1.2,0,1.76.2,12.32,11.15,23.73,21.9,30.41,9.86,6.13,19.05,10,33.26,12.28,0,0,2.11-10.15,10.6-11.08,7-.77,9.54,11.19,9.54,11.19,8.63-1.9,16.7-7,23.46-10,17-7.68,34.84-20.87,34.58-36.84,0-.86,0-4.19-.09-5.16C158.33,225.36,140.34,239.87,124.07,247.22Z"/><path class="cls-4" d="M53.06,136.39c7.31,9.94,26.16,41.45,26.16,41.45,5,3.68,8.32,13.52,7.59,17.81-1.23,7.27-12.82,8.87-19.11,5.27-4.94-2.82-12.81-6.77-14.52-8.3C46.5,186.69,34.12,179.49,32.91,175c-1-3.79,0-12.6,4.24-21.16C42.13,143.69,53.06,136.39,53.06,136.39Z"/><path class="cls-4" d="M135.93,174.25C140.1,187.12,147,202.12,147,202.12c2.18,6.17,7.35,14,11.45,15.58,6.92,2.69,14.37-6.29,14.55-13.45.14-5.63-2.06-17.3-8.88-35.67-2.42-6.53-22.74-24.27-32-37.08l1.1,15.58C133.59,151.56,135.93,174.25,135.93,174.25Z"/><ellipse cx="28.03" cy="25.95" rx="25.01" ry="21.64" transform="translate(-7.98 13.22) rotate(-23.33)"/><ellipse cx="150.89" cy="22.05" rx="21.66" ry="24.99" transform="translate(80.18 157.16) rotate(-70.69)"/><path class="cls-2" d="M88.43,3.64C35.32,5.32-.09,39.32,2.1,108.15,4.3,140.46,72.41,141.69,92.78,141s88.59-6.19,88.74-38.58C179.34,33.64,141.53,2,88.43,3.64Z"/><path d="M87.94,100.3l7.53-.23c2.19-.07,3.62,3,1.87,4.14l-4,2.57a2.75,2.75,0,0,1-3.27.1l-3.72-2.34C84.58,103.44,85.75,100.36,87.94,100.3Z"/><g class="cls-5"><rect class="cls-6" x="132.87" y="110.76" width="34.23" height="11.55" rx="5.77" ry="5.77" transform="translate(-21.39 34.64) rotate(-12.31)"/></g><path d="M161.85,91.69c-3.66-14.48-14.39-25.45-25.55-25.08S121.24,78.1,121.42,93c.18,15.28,13.94,23.91,27.18,23.48C159.77,116.17,165,104.3,161.85,91.69Zm-22.93,3.39a7.17,7.17,0,1,1,6.86-7.4A7.13,7.13,0,0,1,138.92,95.08Z"/><g class="cls-5"><rect class="cls-6" x="29.8" y="99.42" width="11.55" height="34.23" rx="5.77" ry="5.77" transform="translate(-85.87 126.46) rotate(-77.69)"/></g><path d="M35.42,116.52c13.24.43,27-8.2,27.18-23.48C62.78,78.1,58.89,67,47.72,66.61S25.83,77.21,22.17,91.69C19,104.3,24.26,116.17,35.42,116.52Zm2.82-28.84a7.1,7.1,0,1,1,6.86,7.4A7.13,7.13,0,0,1,38.24,87.68Z"/><path d="M109,183.37c-3.78,0-6.86-2.69-6.87-6s3.08-6,6.86-6,6.87,2.69,6.88,6a5.61,5.61,0,0,1-2,4.27,7.36,7.36,0,0,1-4.83,1.75Z"/><path class="cls-7" d="M109,171.85c3.51,0,6.35,2.46,6.36,5.5s-2.84,5.51-6.36,5.52h0c-3.51,0-6.36-2.46-6.37-5.5s2.85-5.51,6.36-5.52h0m0-1h0a7.88,7.88,0,0,0-5.15,1.87,6.1,6.1,0,0,0-2.21,4.65c0,3.58,3.31,6.5,7.37,6.5A7.94,7.94,0,0,0,114.2,182a6.12,6.12,0,0,0,2.2-4.65c0-3.58-3.31-6.5-7.36-6.5Z"/><path d="M61.93,184.45c-3.78,0-6.86-2.69-6.87-6s3.07-6,6.86-6,6.87,2.69,6.88,6a5.64,5.64,0,0,1-2,4.28,7.35,7.35,0,0,1-4.83,1.74Z"/><path class="cls-3" d="M61.93,172.94c3.51,0,6.36,2.45,6.37,5.49s-2.84,5.51-6.36,5.52h0c-3.51,0-6.36-2.46-6.37-5.5s2.84-5.51,6.36-5.51h0m0-1h0a7.82,7.82,0,0,0-5.15,1.86,6.12,6.12,0,0,0-2.21,4.66c0,3.58,3.31,6.49,7.37,6.49s7.37-2.93,7.37-6.52-3.31-6.49-7.37-6.49Z"/><path class="cls-8" d="M61.18,170.9a80.45,80.45,0,0,0,3.61,14.64"/><path class="cls-9" d="M112.63,173.82c2.15,1.46,2.39,5.59,0,7.07"/><path class="cls-7" d="M96.1,200.33l-20.55,0a.38.38,0,0,1-.39-.39l-1-2.18,23.42-.09-1.08,2.24A.4.4,0,0,1,96.1,200.33Z"/><path class="cls-7" d="M85.2,198.88c-1.61,0-9.1-.17-10.69-.87-9.75-4.28-12.26-21.25-13.53-28.2-.25-1.39-.9-1.22-.52-1.69.65-.81,5-.65,10.66-.67,7.18,0,16.45-.11,22.83-.23,14.5-.28,18.55-.17,17.68.78-.34.38-.28,1.13-.33,1.73-.08,1-3.23,24.52-14,28.06C96.1,198.19,86.05,198.88,85.2,198.88Z"/><path class="cls-7" d="M85.2,198.88c-1.61,0-9.1-.17-10.69-.87-9.75-4.28-12.26-21.25-13.53-28.2-.25-1.39-.9-1.22-.52-1.69.65-.81,5-.65,10.66-.67,7.18,0,16.45-.11,22.83-.23,14.5-.28,18.55-.17,17.68.78-.34.38-.28,1.13-.33,1.73-.08,1-3.23,24.52-14,28.06C96.1,198.19,86.05,198.88,85.2,198.88Z"/><path class="cls-10" d="M85.33,198.26c-11.67,0-11.07-.39-11.45-.54a15.31,15.31,0,0,1-1.62-1s9.81.32,13.6.33,13.53-.25,13.53-.25a10.61,10.61,0,0,1-1.82.89C97.35,197.77,96.82,198.26,85.33,198.26Z"/><path class="cls-11" d="M83.67,180.74c0,1.63,2.46,1.61,2.46-.45"/><path class="cls-11" d="M88.66,180.74c0,1.62-2.53,1.61-2.53-.45"/><path d="M85.38,178.75h1.56c.45,0,.72.65.36.87l-.85.5a.55.55,0,0,1-.67,0l-.75-.5C84.67,179.38,84.93,178.75,85.38,178.75Z"/><path d="M70.68,178c.72-3.26,3-5.79,5.57-5.79s3.48,2.45,3.55,5.79-3,5.44-6,5.45"/><path d="M73.85,183.47c-2.52,0-3.8-2.61-3.17-5.45"/><circle class="cls-12" cx="75.87" cy="177.01" r="1.6"/><path d="M98.29,183.34c2.52,0,3.78-2.62,3.15-5.45-.73-3.26-3.07-5.78-5.59-5.77s-3.47,2.46-3.53,5.79,3,5.44,6,5.43"/><circle class="cls-12" cx="96.24" cy="176.89" r="1.6"/></g></g></svg>