<svg xmlns="http://www.w3.org/2000/svg" xmlns:xlink="http://www.w3.org/1999/xlink" viewBox="0 0 300 174"><defs><style>.cls-1{fill:none;}.cls-2{fill:#e8e8e8;}.cls-3{fill:#303030;}.cls-4{fill:#c6c6c6;}.cls-5{opacity:0.28;}.cls-6{clip-path:url(#clip-path);}.cls-7{fill:#919191;}.cls-8{font-size:12px;font-family:MyriadPro-Regular, Myriad Pro;}.cls-9{clip-path:url(#clip-path-2);}.cls-10{fill:#fff;}</style><clipPath id="clip-path"><rect class="cls-1" x="94.65" y="67.8" width="113.99" height="12.59"/></clipPath><clipPath id="clip-path-2"><rect class="cls-1" x="91.01" y="40.31" width="113.99" height="12.59" transform="translate(-7.06 40.86) rotate(-15.36)"/></clipPath></defs><title>video</title><g id="Layer_2" data-name="Layer 2"><g id="Video_Editing" data-name="Video Editing"><rect class="cls-2" width="300" height="174"/><rect class="cls-3" x="94.65" y="67.77" width="113.99" height="72.02"/><rect x="94.65" y="80.36" width="113.99" height="1.9"/><rect class="cls-4" x="94.65" y="67.77" width="113.99" height="12.59"/><g class="cls-5"><g class="cls-6"><rect class="cls-7" x="106.32" y="62.43" width="11.79" height="22.08" transform="translate(34.24 -35.66) rotate(21.24)"/><rect class="cls-7" x="129.46" y="64.18" width="11.79" height="22.08" transform="translate(36.45 -43.93) rotate(21.24)"/><rect class="cls-7" x="152.27" y="64.18" width="11.79" height="22.08" transform="translate(37.99 -52.19) rotate(21.24)"/><rect class="cls-7" x="175.44" y="63.06" width="11.79" height="22.08" transform="translate(39.16 -60.66) rotate(21.24)"/><rect class="cls-7" x="198.61" y="63.06" width="11.79" height="22.08" transform="translate(40.73 -69.05) rotate(21.24)"/><text class="cls-8" transform="translate(131 93.53)">#919191</text></g></g><rect class="cls-4" x="91" y="40.27" width="113.99" height="12.59" transform="translate(-7.05 40.86) rotate(-15.36)"/><g class="cls-5"><g class="cls-9"><rect class="cls-7" x="103.92" y="45.4" width="11.79" height="22.08" transform="translate(6.36 -10.95) rotate(5.88)"/><rect class="cls-7" x="126.7" y="40.96" width="11.79" height="22.08" transform="translate(6.03 -13.31) rotate(5.88)"/><rect class="cls-7" x="148.69" y="34.92" width="11.79" height="22.08" transform="translate(5.52 -15.6) rotate(5.88)"/><rect class="cls-7" x="170.74" y="27.69" width="11.79" height="22.08" transform="translate(4.9 -17.89) rotate(5.88)"/><rect class="cls-7" x="193.08" y="21.56" width="11.79" height="22.08" transform="translate(4.39 -20.22) rotate(5.88)"/></g></g><path class="cls-10" d="M143,94.49l24.72,12.45a2,2,0,0,1,0,3.59l-24.95,12a2,2,0,0,1-2.87-1.82l.23-24.45A2,2,0,0,1,143,94.49Z"/></g></g></svg>