<?xml version="1.0" encoding="utf-8"?>
<!-- Generator: Adobe Illustrator 22.0.0, SVG Export Plug-In . SVG Version: 6.00 Build 0)  -->
<svg version="1.1" id="Layer_1" xmlns="http://www.w3.org/2000/svg" xmlns:xlink="http://www.w3.org/1999/xlink" x="0px" y="0px"
	 viewBox="0 0 460 208" style="enable-background:new 0 0 460 208;" xml:space="preserve">
<style type="text/css">
	.st0{fill:#303030;}
	.st1{opacity:0.3;fill:#FFFFFF;enable-background:new    ;}
	.st2{opacity:0.63;fill:#E6E6E6;enable-background:new    ;}
	.st3{fill:#FFFFFF;}
	.st4{fill:#E6E6E6;}
	.st5{fill:#F2F2F2;}
	.st6{fill:url(#Border_1_);}
	.st7{opacity:0.5;fill:#E6E6E6;enable-background:new    ;}
	.st8{clip-path:url(#SVGID_2_);}
	.st9{fill:#3F3F3F;}
	.st10{fill:#141414;}
	.st11{fill:#2D3436;}
	.st12{fill:#4D4E4E;}
	.st13{fill:#DBDCDD;}
	.st14{fill:#F7F7F7;}
	.st15{fill:#E5E5E5;}
	.st16{opacity:0.22;fill:#B3B3B3;enable-background:new    ;}
	.st17{fill:#FED1DC;}
	.st18{fill:#E8B6AC;}
	
		.st19{opacity:0.5;fill:none;stroke:#666666;stroke-width:0.5;stroke-linecap:round;stroke-linejoin:round;enable-background:new    ;}
	.st20{fill:#F1B8AB;}
	.st21{fill:none;stroke:#B3B3B3;stroke-linecap:round;stroke-linejoin:round;}
	.st22{fill:#0F375B;}
	.st23{fill:#1F3437;}
	.st24{fill:#F2EBD9;}
	.st25{fill:#63CBA2;}
	.st26{fill:#005A36;}
	.st27{fill:#C4A180;}
	.st28{fill:#FB4F93;}
</style>
<title>web</title>
<g>
	<g id="Layer_2_1_">
		<g id="Website">
			<rect class="st0" width="460" height="208"/>
			<rect x="16.9" class="st1" width="28.4" height="208"/>
			<rect x="72.8" class="st1" width="28.4" height="208"/>
			<rect x="127.3" class="st1" width="28.4" height="208"/>
			<rect x="183.2" class="st1" width="28.4" height="208"/>
			<rect x="240" class="st1" width="28.4" height="208"/>
			<rect x="295.9" class="st1" width="28.4" height="208"/>
			<rect x="352.7" class="st1" width="28.4" height="208"/>
			<rect x="408.6" class="st1" width="28.4" height="208"/>
			<rect x="72" y="132" class="st2" width="336" height="20"/>
			<rect x="72" y="129" class="st3" width="336" height="20"/>
			<rect x="79.3" y="149" class="st3" width="19.6" height="59"/>
			<rect x="381.1" y="149" class="st3" width="19.6" height="59"/>
			<g id="Support">
				<path class="st4" d="M256.5,125.8c-1.8-1.8-2.8-4.3-2.7-6.8v-2.7h-22.6v2.7c0.1,2.5-0.9,5-2.7,6.8l-2.6,2.4h33.2L256.5,125.8z"
					/>
				<rect x="225.9" y="128.2" class="st5" width="33.2" height="0.8"/>
			</g>
			
				<linearGradient id="Border_1_" gradientUnits="userSpaceOnUse" x1="189.3968" y1="141.5345" x2="269.1768" y2="197.5945" gradientTransform="matrix(1 0 0 -1 0 264)">
				<stop  offset="0" style="stop-color:#484848"/>
				<stop  offset="6.000000e-02" style="stop-color:#444444"/>
				<stop  offset="0.12" style="stop-color:#393939"/>
				<stop  offset="0.17" style="stop-color:#262626"/>
				<stop  offset="0.23" style="stop-color:#0C0C0C"/>
				<stop  offset="0.23" style="stop-color:#0B0B0B"/>
				<stop  offset="0.32" style="stop-color:#141414"/>
				<stop  offset="1" style="stop-color:#575757"/>
			</linearGradient>
			<path id="Border" class="st6" d="M289.9,112.6v-54c0-1-0.9-1.8-1.8-1.7c0,0,0,0,0,0H197c-1,0-1.8,0.7-1.9,1.7c0,0,0,0,0,0v54
				H289.9z"/>
			<path id="Bottom_Display" class="st5" d="M195.1,107.3v7.8c0,1,0.9,1.8,1.9,1.7c0,0,0,0,0,0h91.1c1,0,1.8-0.7,1.9-1.7
				c0,0,0,0,0,0v-7.8H195.1z"/>
			<rect id="Scren" x="198" y="59.6" class="st3" width="89" height="44.8"/>
			<polygon id="Scren-2" class="st7" points="287,104.4 253.6,104.4 235.8,59.6 287,59.6 			"/>
			<g>
				<defs>
					<rect id="SVGID_1_" x="75.4" width="57.5" height="26.4"/>
				</defs>
				<clipPath id="SVGID_2_">
					<use xlink:href="#SVGID_1_"  style="overflow:visible;"/>
				</clipPath>
				<g class="st8">
					<g id="Wire">
						<rect x="101.6" y="-55" class="st9" width="4.8" height="47.4"/>
						<path class="st10" d="M108.6-2.3h-8.8c0,0-1.3-5.6,0-6.9s7.3-1.3,8.8,0S108.6-2.3,108.6-2.3z"/>
					</g>
					<g id="Lamp">
						<path d="M81,15.5h46.2C127.2,15.5,104.8,20.8,81,15.5z"/>
						<path class="st3" d="M111,14.9c0,3.1-3,5.7-6.8,5.7s-6.8-2.5-6.8-5.7s3-5.7,6.8-5.7S111,11.8,111,14.9z"/>
						<path class="st11" d="M81.2,15.9c0-10.6,10.3-21.1,23-21.1s23,10.5,23,21.1H81.2z"/>
						<path d="M81,15.9h46.2C127.2,15.9,104.8,10.5,81,15.9z"/>
					</g>
				</g>
			</g>
			<path class="st12" d="M287.1,126.8L287.1,126.8c-0.2,0-0.3-0.1-0.4-0.3v-0.9c0-0.2,0.2-0.3,0.4-0.3c0,0,0,0,0,0l0,0
				c0.2,0,0.4,0.1,0.4,0.3v0.9C287.5,126.7,287.3,126.8,287.1,126.8z"/>
			<path class="st3" d="M282.6,129c0,0,0-3.2,4.5-3.2s4.5,3.2,4.5,3.2H282.6z"/>
			<path class="st13" d="M287.1,128.6c-4.6,0-4.1-0.9-4.1-0.9c-0.2,0.4-0.4,0.9-0.4,1.4h9c0-0.5-0.2-0.9-0.4-1.4
				C291.3,127.7,291.6,128.6,287.1,128.6z"/>
			<rect x="187" y="126.9" class="st4" width="36.5" height="1.3"/>
			<rect x="187.6" y="128.2" class="st14" width="35.2" height="0.8"/>
			<rect x="188.3" y="126.6" class="st15" width="1.4" height="0.3"/>
			<rect x="190.3" y="126.6" class="st15" width="1.4" height="0.3"/>
			<rect x="192.4" y="126.6" class="st15" width="1.4" height="0.3"/>
			<rect x="194.4" y="126.6" class="st15" width="15.6" height="0.3"/>
			<rect x="210.6" y="126.6" class="st15" width="1.4" height="0.3"/>
			<rect x="212.7" y="126.6" class="st15" width="1.4" height="0.3"/>
			<rect x="214.7" y="126.6" class="st15" width="1.4" height="0.3"/>
			<rect x="216.7" y="126.6" class="st15" width="1.4" height="0.3"/>
			<rect x="218.8" y="126.6" class="st15" width="1.4" height="0.3"/>
			<rect x="220.8" y="126.6" class="st15" width="1.4" height="0.3"/>
			<polygon class="st16" points="320.2,110.4 311.2,110.4 311.2,100 322.2,100 322.2,107.9 			"/>
			<polygon class="st17" points="319.9,110.1 311,110.1 311,99.6 321.9,99.6 321.9,107.5 			"/>
			<rect x="311" y="99.6" class="st18" width="10.9" height="1.8"/>
			<polygon class="st18" points="319.9,110.1 319.8,107.5 321.9,107.5 			"/>
			<polygon class="st16" points="336.9,102.3 328.2,104.6 325.8,94.5 336.4,91.7 338.2,99.4 			"/>
			<polygon class="st17" points="336.5,102 327.9,104.3 325.4,94.2 336,91.4 337.9,99.1 			"/>
			<polygon class="st18" points="336.5,93.2 325.9,96 325.4,94.2 336,91.4 			"/>
			<polygon class="st18" points="336.5,102 335.8,99.6 337.9,99.1 			"/>
			<line class="st19" x1="311.7" y1="102.4" x2="320.5" y2="102.4"/>
			<line class="st19" x1="311.7" y1="103.3" x2="320.5" y2="103.3"/>
			<line class="st19" x1="311.7" y1="104.2" x2="320.5" y2="104.2"/>
			<line class="st19" x1="311.7" y1="105.1" x2="317.5" y2="105.1"/>
			<line class="st19" x1="315.7" y1="107.1" x2="319" y2="107.1"/>
			<line class="st19" x1="326.8" y1="96.8" x2="335.3" y2="94.4"/>
			<line class="st19" x1="327.1" y1="97.6" x2="335.5" y2="95.3"/>
			<line class="st19" x1="327.3" y1="98.6" x2="335.8" y2="96.2"/>
			<line class="st19" x1="327.5" y1="99.4" x2="333.2" y2="97.9"/>
			<line class="st19" x1="331.9" y1="100.2" x2="335" y2="99.4"/>
			<polygon class="st16" points="318.4,90.3 310.4,86 315,76.7 324.7,81.9 321.3,89 			"/>
			<polygon class="st17" points="318.4,89.8 310.4,85.5 314.9,76.2 324.6,81.4 321.2,88.5 			"/>
			<polygon class="st18" points="323.9,83.1 314.1,77.9 314.9,76.2 324.6,81.4 			"/>
			<polygon class="st18" points="318.4,89.8 319.3,87.5 321.2,88.5 			"/>
			<line class="st19" x1="314.4" y1="79.1" x2="322.2" y2="83.2"/>
			<line class="st19" x1="314" y1="80" x2="321.8" y2="84"/>
			<line class="st19" x1="313.6" y1="80.8" x2="321.4" y2="84.9"/>
			<line class="st19" x1="313.2" y1="81.6" x2="318.4" y2="84.3"/>
			<line class="st19" x1="316" y1="85.3" x2="318.9" y2="86.8"/>
			<g id="BG">
				<rect x="138.6" y="65.1" class="st3" width="28.8" height="40.6"/>
				<polygon class="st20" points="142.5,65.1 137.8,67.9 137.3,67 142,64.1 				"/>
				<polygon class="st20" points="167.2,68.6 164.9,63.5 165.8,63.1 168.1,68.2 				"/>
				<polygon class="st20" points="169.1,104 164.4,106.8 163.9,105.9 168.6,103.1 				"/>
				<polygon class="st20" points="141.2,107.3 137.4,103.3 138.1,102.6 141.9,106.6 				"/>
			</g>
			<g id="Photo">
				<rect x="141" y="70" class="st5" width="6.7" height="7"/>
				<ellipse class="st4" cx="144.2" cy="73.4" rx="1.3" ry="1.4"/>
				<path class="st4" d="M142.2,77c0,0,0.9-2.2,2-2.2s2,2.2,2,2.2H142.2z"/>
			</g>
			<g id="Lines">
				<line class="st21" x1="149.4" y1="70.3" x2="165.2" y2="70.3"/>
				<line class="st21" x1="149.4" y1="72" x2="165.2" y2="72"/>
				<line class="st21" x1="149.4" y1="73.4" x2="165.2" y2="73.4"/>
				<line class="st21" x1="149.4" y1="74.9" x2="165.2" y2="74.9"/>
				<line class="st21" x1="149.4" y1="76.2" x2="165.2" y2="76.2"/>
				<line class="st21" x1="141" y1="78.8" x2="165.2" y2="78.8"/>
				<line class="st21" x1="141" y1="80.6" x2="165.2" y2="80.6"/>
				<line class="st21" x1="140.9" y1="82.5" x2="165.1" y2="82.5"/>
				<line class="st21" x1="140.9" y1="84.3" x2="165.1" y2="84.3"/>
				<line class="st21" x1="140.9" y1="86" x2="165.1" y2="86"/>
				<line class="st21" x1="140.9" y1="87.8" x2="165.1" y2="87.8"/>
				<line class="st21" x1="140.8" y1="89.7" x2="165" y2="89.7"/>
				<line class="st21" x1="140.8" y1="91.5" x2="165" y2="91.5"/>
				<line class="st21" x1="140.9" y1="93.4" x2="165.2" y2="93.4"/>
				<line class="st21" x1="140.9" y1="95.2" x2="165.2" y2="95.2"/>
				<line class="st21" x1="140.8" y1="97" x2="165" y2="97"/>
				<line class="st21" x1="140.8" y1="98.8" x2="165" y2="98.8"/>
			</g>
			<polygon class="st20" points="395.4,125.5 393.8,125.3 398.9,110 400.5,110.2 			"/>
			<polygon class="st4" points="394.4,125.4 393.8,125.3 398.9,110 399.4,110.1 			"/>
			<polygon class="st22" points="395.4,125.5 393.8,125.3 393.7,125.6 395.2,125.9 			"/>
			<polygon class="st23" points="395.4,125.5 393.8,125.3 393.7,125.6 395.2,125.9 			"/>
			<polygon class="st24" points="394.9,126.8 393.4,126.6 393.7,125.6 395.2,125.9 			"/>
			<polygon class="st24" points="398.9,110 400.2,108.6 400.5,110.2 			"/>
			<polygon class="st23" points="400.3,109 400.4,108.1 399.9,108.9 			"/>
			<polygon class="st25" points="392.4,127.4 390.8,127.5 387.8,112 389.4,111.9 			"/>
			<polygon class="st4" points="391.4,127.4 390.8,127.5 387.8,112 388.3,111.9 			"/>
			<polygon class="st22" points="392.4,127.4 390.8,127.5 390.9,127.8 392.5,127.7 			"/>
			<polygon class="st23" points="392.4,127.4 390.8,127.5 390.9,127.8 392.5,127.7 			"/>
			<polygon class="st24" points="392.6,128.6 391.1,128.8 390.9,127.8 392.5,127.7 			"/>
			<polygon class="st24" points="387.8,112 388.3,110.4 389.4,111.9 			"/>
			<polygon class="st23" points="388.6,110.7 388.2,109.8 388.1,110.7 			"/>
			<polygon class="st26" points="393.9,109.5 395.4,109.6 392.8,125.1 391.2,125 			"/>
			<polygon class="st4" points="394.9,109.6 395.4,109.6 392.8,125.1 392.2,125.1 			"/>
			<polygon class="st22" points="393.9,109.5 395.4,109.6 395.5,109.3 393.9,109.2 			"/>
			<polygon class="st23" points="393.9,109.5 395.4,109.6 395.5,109.3 393.9,109.2 			"/>
			<polygon class="st3" points="394.1,108.2 395.6,108.3 395.5,109.3 393.9,109.2 			"/>
			<polygon class="st24" points="392.8,125.1 391.7,126.6 391.2,125 			"/>
			<polygon class="st23" points="391.5,126.3 391.6,127.2 392,126.3 			"/>
			<polygon class="st5" points="397.9,128.9 388.7,128.9 387.1,118.5 399.4,118.5 			"/>
			<polygon class="st4" points="396.9,118.5 396.6,128.9 398.6,128.9 399.4,118.5 			"/>
			<g id="Wires">
				<polygon class="st5" points="346.8,19.4 374.1,10.1 374.3,10.6 374.5,10.1 401.8,19.4 401.5,20.4 374.3,11.1 347.1,20.4 				"/>
				<path class="st27" d="M374.3,11.9c0.7,0,1.3-0.6,1.3-1.3s-0.6-1.3-1.3-1.3c-0.7,0-1.3,0.6-1.3,1.3
					C373,11.3,373.6,11.9,374.3,11.9z"/>
			</g>
			<g id="BG-2">
				<rect x="331.3" y="19.7" class="st3" width="86" height="48.7"/>
				<rect x="331.3" y="16.3" class="st28" width="86" height="3.4"/>
			</g>
		</g>
	</g>
</g>
</svg>
